M48
; DRILL file {KiCad 9.0.5} date 2026-06-01T00:15:45+0200
; FORMAT={-:-/ absolute / metric / decimal}
; #@! TF.CreationDate,2026-06-01T00:15:45+02:00
; #@! TF.GenerationSoftware,Kicad,Pcbnew,9.0.5
; #@! TF.FileFunction,Plated,1,2,PTH
FMAT,2
METRIC
; #@! TA.AperFunction,Plated,PTH,ViaDrill
T1C0.300
; #@! TA.AperFunction,Plated,PTH,ComponentDrill
T2C0.800
; #@! TA.AperFunction,Plated,PTH,ComponentDrill
T3C1.000
; #@! TA.AperFunction,Plated,PTH,ComponentDrill
T4C1.016
; #@! TA.AperFunction,Plated,PTH,ComponentDrill
T5C1.400
; #@! TA.AperFunction,Plated,PTH,ComponentDrill
T6C1.500
%
G90
G05
T1
X122.112Y-88.838
X131.064Y-99.568
T2
X82.126Y-115.316
X82.126Y-136.652
X82.466Y-78.74
X82.466Y-81.28
X82.466Y-83.82
X82.466Y-86.36
X82.466Y-88.9
X82.466Y-91.44
X82.466Y-93.98
X82.466Y-96.52
X114.383Y-100.076
X114.383Y-102.616
X114.383Y-105.156
X114.383Y-107.696
X114.383Y-110.236
X114.383Y-112.776
X114.383Y-115.316
X114.383Y-117.856
X114.383Y-121.412
X114.383Y-123.952
X114.383Y-126.492
X114.383Y-129.032
X114.383Y-131.572
X114.383Y-134.112
X114.383Y-136.652
X114.383Y-139.192
X114.724Y-81.28
X148.59Y-123.19
X148.59Y-125.73
X148.59Y-128.27
X148.59Y-130.81
X148.59Y-133.35
X148.59Y-135.89
X148.59Y-138.43
X148.59Y-140.97
X180.848Y-125.73
T3
X82.126Y-102.616
X82.126Y-105.156
X82.126Y-107.696
X82.126Y-110.236
X82.126Y-112.776
X82.126Y-123.952
X82.126Y-126.492
X82.126Y-129.032
X82.126Y-131.572
X82.126Y-134.112
X114.724Y-83.82
X114.724Y-86.36
X114.724Y-88.9
X114.724Y-91.44
X114.724Y-93.98
X120.0Y-94.02
X120.0Y-96.56
X120.0Y-99.1
X120.0Y-101.64
X120.0Y-104.18
X120.0Y-106.72
X120.0Y-109.26
X120.0Y-111.8
X120.0Y-114.34
X120.0Y-116.88
X120.0Y-119.42
X120.0Y-121.96
X120.0Y-124.5
X142.86Y-94.02
X142.86Y-96.56
X142.86Y-99.1
X142.86Y-101.64
X142.86Y-104.18
X142.86Y-106.72
X142.86Y-109.26
X142.86Y-111.8
X142.86Y-114.34
X142.86Y-116.88
X142.86Y-119.42
X142.86Y-121.96
X142.86Y-124.5
X180.848Y-128.27
X180.848Y-130.81
X180.848Y-133.35
X180.848Y-135.89
X180.848Y-138.43
T4
X169.086Y-94.66
X169.34Y-84.5
X171.626Y-94.66
X171.88Y-84.5
X174.166Y-94.66
X174.42Y-84.5
X176.706Y-94.66
X176.96Y-84.5
X179.246Y-94.66
X179.5Y-84.5
X181.786Y-94.66
X182.04Y-84.5
T5
X82.5Y-71.25
X87.5Y-71.25
X87.988Y-148.074
X92.5Y-71.25
X92.988Y-148.074
X97.5Y-71.25
X97.988Y-148.074
X102.5Y-71.75
X102.988Y-148.074
X107.5Y-71.75
X107.988Y-148.074
X112.988Y-148.074
X117.988Y-148.074
X122.988Y-148.074
X127.988Y-148.074
X132.988Y-148.074
X137.988Y-148.074
X142.988Y-148.074
X145.5Y-71.5
X149.86Y-147.828
X150.5Y-71.5
X154.86Y-147.828
X155.5Y-71.5
X159.86Y-147.828
X160.5Y-71.5
X165.434Y-147.828
X165.5Y-71.5
X170.434Y-147.828
X170.5Y-71.5
X175.5Y-71.5
X177.546Y-147.828
X180.5Y-71.5
X182.546Y-147.828
T6
X146.558Y-84.836
X146.558Y-87.376
X146.558Y-89.916
X146.558Y-92.456
X146.558Y-94.996
X146.558Y-97.536
X146.558Y-100.076
X146.558Y-102.616
X146.558Y-105.156
X146.558Y-107.696
X149.098Y-84.836
X149.098Y-87.376
X149.098Y-89.916
X149.098Y-92.456
X149.098Y-94.996
X149.098Y-97.536
X149.098Y-100.076
X149.098Y-102.616
X149.098Y-105.156
X149.098Y-107.696
X164.338Y-84.836
X164.338Y-87.376
X164.338Y-89.916
X164.338Y-92.456
X164.338Y-94.996
X164.338Y-97.536
X164.338Y-100.076
X164.338Y-102.616
X164.338Y-105.156
X164.338Y-107.696
X168.96Y-99.649
X168.96Y-118.191
X171.5Y-99.649
X171.5Y-118.191
X179.628Y-99.649
X179.628Y-118.191
X182.168Y-99.649
X182.168Y-118.191
M30
