%TF.GenerationSoftware,KiCad,Pcbnew,9.0.5*%
%TF.CreationDate,2026-06-01T00:15:37+02:00*%
%TF.ProjectId,eth01-24v,65746830-312d-4323-9476-2e6b69636164,rev?*%
%TF.SameCoordinates,Original*%
%TF.FileFunction,Legend,Bot*%
%TF.FilePolarity,Positive*%
%FSLAX46Y46*%
G04 Gerber Fmt 4.6, Leading zero omitted, Abs format (unit mm)*
G04 Created by KiCad (PCBNEW 9.0.5) date 2026-06-01 00:15:37*
%MOMM*%
%LPD*%
G01*
G04 APERTURE LIST*
%ADD10C,0.150000*%
%ADD11C,0.120000*%
G04 APERTURE END LIST*
D10*
X99954819Y-104333333D02*
X98954819Y-104333333D01*
X98954819Y-104333333D02*
X98954819Y-104571428D01*
X98954819Y-104571428D02*
X99002438Y-104714285D01*
X99002438Y-104714285D02*
X99097676Y-104809523D01*
X99097676Y-104809523D02*
X99192914Y-104857142D01*
X99192914Y-104857142D02*
X99383390Y-104904761D01*
X99383390Y-104904761D02*
X99526247Y-104904761D01*
X99526247Y-104904761D02*
X99716723Y-104857142D01*
X99716723Y-104857142D02*
X99811961Y-104809523D01*
X99811961Y-104809523D02*
X99907200Y-104714285D01*
X99907200Y-104714285D02*
X99954819Y-104571428D01*
X99954819Y-104571428D02*
X99954819Y-104333333D01*
X99954819Y-105904761D02*
X99478628Y-105571428D01*
X99954819Y-105333333D02*
X98954819Y-105333333D01*
X98954819Y-105333333D02*
X98954819Y-105714285D01*
X98954819Y-105714285D02*
X99002438Y-105809523D01*
X99002438Y-105809523D02*
X99050057Y-105857142D01*
X99050057Y-105857142D02*
X99145295Y-105904761D01*
X99145295Y-105904761D02*
X99288152Y-105904761D01*
X99288152Y-105904761D02*
X99383390Y-105857142D01*
X99383390Y-105857142D02*
X99431009Y-105809523D01*
X99431009Y-105809523D02*
X99478628Y-105714285D01*
X99478628Y-105714285D02*
X99478628Y-105333333D01*
X99669104Y-106285714D02*
X99669104Y-106761904D01*
X99954819Y-106190476D02*
X98954819Y-106523809D01*
X98954819Y-106523809D02*
X99954819Y-106857142D01*
X99050057Y-107142857D02*
X99002438Y-107190476D01*
X99002438Y-107190476D02*
X98954819Y-107285714D01*
X98954819Y-107285714D02*
X98954819Y-107523809D01*
X98954819Y-107523809D02*
X99002438Y-107619047D01*
X99002438Y-107619047D02*
X99050057Y-107666666D01*
X99050057Y-107666666D02*
X99145295Y-107714285D01*
X99145295Y-107714285D02*
X99240533Y-107714285D01*
X99240533Y-107714285D02*
X99383390Y-107666666D01*
X99383390Y-107666666D02*
X99954819Y-107095238D01*
X99954819Y-107095238D02*
X99954819Y-107714285D01*
X161954819Y-104333333D02*
X160954819Y-104333333D01*
X160954819Y-104333333D02*
X160954819Y-104571428D01*
X160954819Y-104571428D02*
X161002438Y-104714285D01*
X161002438Y-104714285D02*
X161097676Y-104809523D01*
X161097676Y-104809523D02*
X161192914Y-104857142D01*
X161192914Y-104857142D02*
X161383390Y-104904761D01*
X161383390Y-104904761D02*
X161526247Y-104904761D01*
X161526247Y-104904761D02*
X161716723Y-104857142D01*
X161716723Y-104857142D02*
X161811961Y-104809523D01*
X161811961Y-104809523D02*
X161907200Y-104714285D01*
X161907200Y-104714285D02*
X161954819Y-104571428D01*
X161954819Y-104571428D02*
X161954819Y-104333333D01*
X161954819Y-105904761D02*
X161478628Y-105571428D01*
X161954819Y-105333333D02*
X160954819Y-105333333D01*
X160954819Y-105333333D02*
X160954819Y-105714285D01*
X160954819Y-105714285D02*
X161002438Y-105809523D01*
X161002438Y-105809523D02*
X161050057Y-105857142D01*
X161050057Y-105857142D02*
X161145295Y-105904761D01*
X161145295Y-105904761D02*
X161288152Y-105904761D01*
X161288152Y-105904761D02*
X161383390Y-105857142D01*
X161383390Y-105857142D02*
X161431009Y-105809523D01*
X161431009Y-105809523D02*
X161478628Y-105714285D01*
X161478628Y-105714285D02*
X161478628Y-105333333D01*
X161669104Y-106285714D02*
X161669104Y-106761904D01*
X161954819Y-106190476D02*
X160954819Y-106523809D01*
X160954819Y-106523809D02*
X161954819Y-106857142D01*
X161954819Y-107714285D02*
X161954819Y-107142857D01*
X161954819Y-107428571D02*
X160954819Y-107428571D01*
X160954819Y-107428571D02*
X161097676Y-107333333D01*
X161097676Y-107333333D02*
X161192914Y-107238095D01*
X161192914Y-107238095D02*
X161240533Y-107142857D01*
D11*
%TO.C,DRA2*%
X88500000Y-127250000D02*
X98500000Y-127250000D01*
X98500000Y-127250000D02*
X98500000Y-84750000D01*
X88500000Y-84750000D02*
X88500000Y-127250000D01*
X98500000Y-84750000D02*
X88500000Y-84750000D01*
%TO.C,DRA1*%
X150500000Y-127250000D02*
X160500000Y-127250000D01*
X160500000Y-127250000D02*
X160500000Y-84750000D01*
X150500000Y-84750000D02*
X150500000Y-127250000D01*
X160500000Y-84750000D02*
X150500000Y-84750000D01*
%TD*%
M02*
