%TF.GenerationSoftware,KiCad,Pcbnew,9.0.5*%
%TF.CreationDate,2026-06-01T00:15:37+02:00*%
%TF.ProjectId,eth01-24v,65746830-312d-4323-9476-2e6b69636164,rev?*%
%TF.SameCoordinates,Original*%
%TF.FileFunction,Legend,Top*%
%TF.FilePolarity,Positive*%
%FSLAX46Y46*%
G04 Gerber Fmt 4.6, Leading zero omitted, Abs format (unit mm)*
G04 Created by KiCad (PCBNEW 9.0.5) date 2026-06-01 00:15:37*
%MOMM*%
%LPD*%
G01*
G04 APERTURE LIST*
%ADD10C,0.100000*%
%ADD11C,0.254000*%
%ADD12C,0.127000*%
%ADD13C,0.150000*%
%ADD14C,0.120000*%
G04 APERTURE END LIST*
D10*
X92256265Y-78824800D02*
X92399122Y-78872419D01*
X92399122Y-78872419D02*
X92637217Y-78872419D01*
X92637217Y-78872419D02*
X92732455Y-78824800D01*
X92732455Y-78824800D02*
X92780074Y-78777180D01*
X92780074Y-78777180D02*
X92827693Y-78681942D01*
X92827693Y-78681942D02*
X92827693Y-78586704D01*
X92827693Y-78586704D02*
X92780074Y-78491466D01*
X92780074Y-78491466D02*
X92732455Y-78443847D01*
X92732455Y-78443847D02*
X92637217Y-78396228D01*
X92637217Y-78396228D02*
X92446741Y-78348609D01*
X92446741Y-78348609D02*
X92351503Y-78300990D01*
X92351503Y-78300990D02*
X92303884Y-78253371D01*
X92303884Y-78253371D02*
X92256265Y-78158133D01*
X92256265Y-78158133D02*
X92256265Y-78062895D01*
X92256265Y-78062895D02*
X92303884Y-77967657D01*
X92303884Y-77967657D02*
X92351503Y-77920038D01*
X92351503Y-77920038D02*
X92446741Y-77872419D01*
X92446741Y-77872419D02*
X92684836Y-77872419D01*
X92684836Y-77872419D02*
X92827693Y-77920038D01*
X93446741Y-77872419D02*
X93637217Y-77872419D01*
X93637217Y-77872419D02*
X93732455Y-77920038D01*
X93732455Y-77920038D02*
X93827693Y-78015276D01*
X93827693Y-78015276D02*
X93875312Y-78205752D01*
X93875312Y-78205752D02*
X93875312Y-78539085D01*
X93875312Y-78539085D02*
X93827693Y-78729561D01*
X93827693Y-78729561D02*
X93732455Y-78824800D01*
X93732455Y-78824800D02*
X93637217Y-78872419D01*
X93637217Y-78872419D02*
X93446741Y-78872419D01*
X93446741Y-78872419D02*
X93351503Y-78824800D01*
X93351503Y-78824800D02*
X93256265Y-78729561D01*
X93256265Y-78729561D02*
X93208646Y-78539085D01*
X93208646Y-78539085D02*
X93208646Y-78205752D01*
X93208646Y-78205752D02*
X93256265Y-78015276D01*
X93256265Y-78015276D02*
X93351503Y-77920038D01*
X93351503Y-77920038D02*
X93446741Y-77872419D01*
X94303884Y-78872419D02*
X94303884Y-77872419D01*
X94303884Y-77872419D02*
X94875312Y-78872419D01*
X94875312Y-78872419D02*
X94875312Y-77872419D01*
X95351503Y-78872419D02*
X95351503Y-77872419D01*
X95351503Y-77872419D02*
X95589598Y-77872419D01*
X95589598Y-77872419D02*
X95732455Y-77920038D01*
X95732455Y-77920038D02*
X95827693Y-78015276D01*
X95827693Y-78015276D02*
X95875312Y-78110514D01*
X95875312Y-78110514D02*
X95922931Y-78300990D01*
X95922931Y-78300990D02*
X95922931Y-78443847D01*
X95922931Y-78443847D02*
X95875312Y-78634323D01*
X95875312Y-78634323D02*
X95827693Y-78729561D01*
X95827693Y-78729561D02*
X95732455Y-78824800D01*
X95732455Y-78824800D02*
X95589598Y-78872419D01*
X95589598Y-78872419D02*
X95351503Y-78872419D01*
X96351503Y-78348609D02*
X96684836Y-78348609D01*
X96827693Y-78872419D02*
X96351503Y-78872419D01*
X96351503Y-78872419D02*
X96351503Y-77872419D01*
X96351503Y-77872419D02*
X96827693Y-77872419D01*
X97922932Y-77872419D02*
X98589598Y-77872419D01*
X98589598Y-77872419D02*
X97922932Y-78872419D01*
X97922932Y-78872419D02*
X98589598Y-78872419D01*
X97327693Y-75920038D02*
X97232455Y-75872419D01*
X97232455Y-75872419D02*
X97089598Y-75872419D01*
X97089598Y-75872419D02*
X96946741Y-75920038D01*
X96946741Y-75920038D02*
X96851503Y-76015276D01*
X96851503Y-76015276D02*
X96803884Y-76110514D01*
X96803884Y-76110514D02*
X96756265Y-76300990D01*
X96756265Y-76300990D02*
X96756265Y-76443847D01*
X96756265Y-76443847D02*
X96803884Y-76634323D01*
X96803884Y-76634323D02*
X96851503Y-76729561D01*
X96851503Y-76729561D02*
X96946741Y-76824800D01*
X96946741Y-76824800D02*
X97089598Y-76872419D01*
X97089598Y-76872419D02*
X97184836Y-76872419D01*
X97184836Y-76872419D02*
X97327693Y-76824800D01*
X97327693Y-76824800D02*
X97375312Y-76777180D01*
X97375312Y-76777180D02*
X97375312Y-76443847D01*
X97375312Y-76443847D02*
X97184836Y-76443847D01*
X97803884Y-76872419D02*
X97803884Y-75872419D01*
X97803884Y-75872419D02*
X98375312Y-76872419D01*
X98375312Y-76872419D02*
X98375312Y-75872419D01*
X98851503Y-76872419D02*
X98851503Y-75872419D01*
X98851503Y-75872419D02*
X99089598Y-75872419D01*
X99089598Y-75872419D02*
X99232455Y-75920038D01*
X99232455Y-75920038D02*
X99327693Y-76015276D01*
X99327693Y-76015276D02*
X99375312Y-76110514D01*
X99375312Y-76110514D02*
X99422931Y-76300990D01*
X99422931Y-76300990D02*
X99422931Y-76443847D01*
X99422931Y-76443847D02*
X99375312Y-76634323D01*
X99375312Y-76634323D02*
X99327693Y-76729561D01*
X99327693Y-76729561D02*
X99232455Y-76824800D01*
X99232455Y-76824800D02*
X99089598Y-76872419D01*
X99089598Y-76872419D02*
X98851503Y-76872419D01*
X90303884Y-76348609D02*
X90637217Y-76348609D01*
X90780074Y-76872419D02*
X90303884Y-76872419D01*
X90303884Y-76872419D02*
X90303884Y-75872419D01*
X90303884Y-75872419D02*
X90780074Y-75872419D01*
X91208646Y-76491466D02*
X91970551Y-76491466D01*
X92399122Y-76824800D02*
X92541979Y-76872419D01*
X92541979Y-76872419D02*
X92780074Y-76872419D01*
X92780074Y-76872419D02*
X92875312Y-76824800D01*
X92875312Y-76824800D02*
X92922931Y-76777180D01*
X92922931Y-76777180D02*
X92970550Y-76681942D01*
X92970550Y-76681942D02*
X92970550Y-76586704D01*
X92970550Y-76586704D02*
X92922931Y-76491466D01*
X92922931Y-76491466D02*
X92875312Y-76443847D01*
X92875312Y-76443847D02*
X92780074Y-76396228D01*
X92780074Y-76396228D02*
X92589598Y-76348609D01*
X92589598Y-76348609D02*
X92494360Y-76300990D01*
X92494360Y-76300990D02*
X92446741Y-76253371D01*
X92446741Y-76253371D02*
X92399122Y-76158133D01*
X92399122Y-76158133D02*
X92399122Y-76062895D01*
X92399122Y-76062895D02*
X92446741Y-75967657D01*
X92446741Y-75967657D02*
X92494360Y-75920038D01*
X92494360Y-75920038D02*
X92589598Y-75872419D01*
X92589598Y-75872419D02*
X92827693Y-75872419D01*
X92827693Y-75872419D02*
X92970550Y-75920038D01*
X93256265Y-75872419D02*
X93827693Y-75872419D01*
X93541979Y-76872419D02*
X93541979Y-75872419D01*
X94351503Y-75872419D02*
X94541979Y-75872419D01*
X94541979Y-75872419D02*
X94637217Y-75920038D01*
X94637217Y-75920038D02*
X94732455Y-76015276D01*
X94732455Y-76015276D02*
X94780074Y-76205752D01*
X94780074Y-76205752D02*
X94780074Y-76539085D01*
X94780074Y-76539085D02*
X94732455Y-76729561D01*
X94732455Y-76729561D02*
X94637217Y-76824800D01*
X94637217Y-76824800D02*
X94541979Y-76872419D01*
X94541979Y-76872419D02*
X94351503Y-76872419D01*
X94351503Y-76872419D02*
X94256265Y-76824800D01*
X94256265Y-76824800D02*
X94161027Y-76729561D01*
X94161027Y-76729561D02*
X94113408Y-76539085D01*
X94113408Y-76539085D02*
X94113408Y-76205752D01*
X94113408Y-76205752D02*
X94161027Y-76015276D01*
X94161027Y-76015276D02*
X94256265Y-75920038D01*
X94256265Y-75920038D02*
X94351503Y-75872419D01*
X95208646Y-76872419D02*
X95208646Y-75872419D01*
X95208646Y-75872419D02*
X95589598Y-75872419D01*
X95589598Y-75872419D02*
X95684836Y-75920038D01*
X95684836Y-75920038D02*
X95732455Y-75967657D01*
X95732455Y-75967657D02*
X95780074Y-76062895D01*
X95780074Y-76062895D02*
X95780074Y-76205752D01*
X95780074Y-76205752D02*
X95732455Y-76300990D01*
X95732455Y-76300990D02*
X95684836Y-76348609D01*
X95684836Y-76348609D02*
X95589598Y-76396228D01*
X95589598Y-76396228D02*
X95208646Y-76396228D01*
X85803884Y-76491466D02*
X86565789Y-76491466D01*
X86184836Y-76872419D02*
X86184836Y-76110514D01*
X86994360Y-75967657D02*
X87041979Y-75920038D01*
X87041979Y-75920038D02*
X87137217Y-75872419D01*
X87137217Y-75872419D02*
X87375312Y-75872419D01*
X87375312Y-75872419D02*
X87470550Y-75920038D01*
X87470550Y-75920038D02*
X87518169Y-75967657D01*
X87518169Y-75967657D02*
X87565788Y-76062895D01*
X87565788Y-76062895D02*
X87565788Y-76158133D01*
X87565788Y-76158133D02*
X87518169Y-76300990D01*
X87518169Y-76300990D02*
X86946741Y-76872419D01*
X86946741Y-76872419D02*
X87565788Y-76872419D01*
X88422931Y-76205752D02*
X88422931Y-76872419D01*
X88184836Y-75824800D02*
X87946741Y-76539085D01*
X87946741Y-76539085D02*
X88565788Y-76539085D01*
X88803884Y-75872419D02*
X89137217Y-76872419D01*
X89137217Y-76872419D02*
X89470550Y-75872419D01*
X80256265Y-76824800D02*
X80399122Y-76872419D01*
X80399122Y-76872419D02*
X80637217Y-76872419D01*
X80637217Y-76872419D02*
X80732455Y-76824800D01*
X80732455Y-76824800D02*
X80780074Y-76777180D01*
X80780074Y-76777180D02*
X80827693Y-76681942D01*
X80827693Y-76681942D02*
X80827693Y-76586704D01*
X80827693Y-76586704D02*
X80780074Y-76491466D01*
X80780074Y-76491466D02*
X80732455Y-76443847D01*
X80732455Y-76443847D02*
X80637217Y-76396228D01*
X80637217Y-76396228D02*
X80446741Y-76348609D01*
X80446741Y-76348609D02*
X80351503Y-76300990D01*
X80351503Y-76300990D02*
X80303884Y-76253371D01*
X80303884Y-76253371D02*
X80256265Y-76158133D01*
X80256265Y-76158133D02*
X80256265Y-76062895D01*
X80256265Y-76062895D02*
X80303884Y-75967657D01*
X80303884Y-75967657D02*
X80351503Y-75920038D01*
X80351503Y-75920038D02*
X80446741Y-75872419D01*
X80446741Y-75872419D02*
X80684836Y-75872419D01*
X80684836Y-75872419D02*
X80827693Y-75920038D01*
X81256265Y-76872419D02*
X81256265Y-75872419D01*
X82256264Y-75920038D02*
X82161026Y-75872419D01*
X82161026Y-75872419D02*
X82018169Y-75872419D01*
X82018169Y-75872419D02*
X81875312Y-75920038D01*
X81875312Y-75920038D02*
X81780074Y-76015276D01*
X81780074Y-76015276D02*
X81732455Y-76110514D01*
X81732455Y-76110514D02*
X81684836Y-76300990D01*
X81684836Y-76300990D02*
X81684836Y-76443847D01*
X81684836Y-76443847D02*
X81732455Y-76634323D01*
X81732455Y-76634323D02*
X81780074Y-76729561D01*
X81780074Y-76729561D02*
X81875312Y-76824800D01*
X81875312Y-76824800D02*
X82018169Y-76872419D01*
X82018169Y-76872419D02*
X82113407Y-76872419D01*
X82113407Y-76872419D02*
X82256264Y-76824800D01*
X82256264Y-76824800D02*
X82303883Y-76777180D01*
X82303883Y-76777180D02*
X82303883Y-76443847D01*
X82303883Y-76443847D02*
X82113407Y-76443847D01*
X82732455Y-76872419D02*
X82732455Y-75872419D01*
X82732455Y-75872419D02*
X83303883Y-76872419D01*
X83303883Y-76872419D02*
X83303883Y-75872419D01*
X83732455Y-76586704D02*
X84208645Y-76586704D01*
X83637217Y-76872419D02*
X83970550Y-75872419D01*
X83970550Y-75872419D02*
X84303883Y-76872419D01*
X85113407Y-76872419D02*
X84637217Y-76872419D01*
X84637217Y-76872419D02*
X84637217Y-75872419D01*
X107327693Y-75920038D02*
X107232455Y-75872419D01*
X107232455Y-75872419D02*
X107089598Y-75872419D01*
X107089598Y-75872419D02*
X106946741Y-75920038D01*
X106946741Y-75920038D02*
X106851503Y-76015276D01*
X106851503Y-76015276D02*
X106803884Y-76110514D01*
X106803884Y-76110514D02*
X106756265Y-76300990D01*
X106756265Y-76300990D02*
X106756265Y-76443847D01*
X106756265Y-76443847D02*
X106803884Y-76634323D01*
X106803884Y-76634323D02*
X106851503Y-76729561D01*
X106851503Y-76729561D02*
X106946741Y-76824800D01*
X106946741Y-76824800D02*
X107089598Y-76872419D01*
X107089598Y-76872419D02*
X107184836Y-76872419D01*
X107184836Y-76872419D02*
X107327693Y-76824800D01*
X107327693Y-76824800D02*
X107375312Y-76777180D01*
X107375312Y-76777180D02*
X107375312Y-76443847D01*
X107375312Y-76443847D02*
X107184836Y-76443847D01*
X107803884Y-76872419D02*
X107803884Y-75872419D01*
X107803884Y-75872419D02*
X108375312Y-76872419D01*
X108375312Y-76872419D02*
X108375312Y-75872419D01*
X108851503Y-76872419D02*
X108851503Y-75872419D01*
X108851503Y-75872419D02*
X109089598Y-75872419D01*
X109089598Y-75872419D02*
X109232455Y-75920038D01*
X109232455Y-75920038D02*
X109327693Y-76015276D01*
X109327693Y-76015276D02*
X109375312Y-76110514D01*
X109375312Y-76110514D02*
X109422931Y-76300990D01*
X109422931Y-76300990D02*
X109422931Y-76443847D01*
X109422931Y-76443847D02*
X109375312Y-76634323D01*
X109375312Y-76634323D02*
X109327693Y-76729561D01*
X109327693Y-76729561D02*
X109232455Y-76824800D01*
X109232455Y-76824800D02*
X109089598Y-76872419D01*
X109089598Y-76872419D02*
X108851503Y-76872419D01*
X102137217Y-76348609D02*
X102280074Y-76396228D01*
X102280074Y-76396228D02*
X102327693Y-76443847D01*
X102327693Y-76443847D02*
X102375312Y-76539085D01*
X102375312Y-76539085D02*
X102375312Y-76681942D01*
X102375312Y-76681942D02*
X102327693Y-76777180D01*
X102327693Y-76777180D02*
X102280074Y-76824800D01*
X102280074Y-76824800D02*
X102184836Y-76872419D01*
X102184836Y-76872419D02*
X101803884Y-76872419D01*
X101803884Y-76872419D02*
X101803884Y-75872419D01*
X101803884Y-75872419D02*
X102137217Y-75872419D01*
X102137217Y-75872419D02*
X102232455Y-75920038D01*
X102232455Y-75920038D02*
X102280074Y-75967657D01*
X102280074Y-75967657D02*
X102327693Y-76062895D01*
X102327693Y-76062895D02*
X102327693Y-76158133D01*
X102327693Y-76158133D02*
X102280074Y-76253371D01*
X102280074Y-76253371D02*
X102232455Y-76300990D01*
X102232455Y-76300990D02*
X102137217Y-76348609D01*
X102137217Y-76348609D02*
X101803884Y-76348609D01*
X103232455Y-75872419D02*
X103041979Y-75872419D01*
X103041979Y-75872419D02*
X102946741Y-75920038D01*
X102946741Y-75920038D02*
X102899122Y-75967657D01*
X102899122Y-75967657D02*
X102803884Y-76110514D01*
X102803884Y-76110514D02*
X102756265Y-76300990D01*
X102756265Y-76300990D02*
X102756265Y-76681942D01*
X102756265Y-76681942D02*
X102803884Y-76777180D01*
X102803884Y-76777180D02*
X102851503Y-76824800D01*
X102851503Y-76824800D02*
X102946741Y-76872419D01*
X102946741Y-76872419D02*
X103137217Y-76872419D01*
X103137217Y-76872419D02*
X103232455Y-76824800D01*
X103232455Y-76824800D02*
X103280074Y-76777180D01*
X103280074Y-76777180D02*
X103327693Y-76681942D01*
X103327693Y-76681942D02*
X103327693Y-76443847D01*
X103327693Y-76443847D02*
X103280074Y-76348609D01*
X103280074Y-76348609D02*
X103232455Y-76300990D01*
X103232455Y-76300990D02*
X103137217Y-76253371D01*
X103137217Y-76253371D02*
X102946741Y-76253371D01*
X102946741Y-76253371D02*
X102851503Y-76300990D01*
X102851503Y-76300990D02*
X102803884Y-76348609D01*
X102803884Y-76348609D02*
X102756265Y-76443847D01*
X150420038Y-78422306D02*
X150372419Y-78517544D01*
X150372419Y-78517544D02*
X150372419Y-78660401D01*
X150372419Y-78660401D02*
X150420038Y-78803258D01*
X150420038Y-78803258D02*
X150515276Y-78898496D01*
X150515276Y-78898496D02*
X150610514Y-78946115D01*
X150610514Y-78946115D02*
X150800990Y-78993734D01*
X150800990Y-78993734D02*
X150943847Y-78993734D01*
X150943847Y-78993734D02*
X151134323Y-78946115D01*
X151134323Y-78946115D02*
X151229561Y-78898496D01*
X151229561Y-78898496D02*
X151324800Y-78803258D01*
X151324800Y-78803258D02*
X151372419Y-78660401D01*
X151372419Y-78660401D02*
X151372419Y-78565163D01*
X151372419Y-78565163D02*
X151324800Y-78422306D01*
X151324800Y-78422306D02*
X151277180Y-78374687D01*
X151277180Y-78374687D02*
X150943847Y-78374687D01*
X150943847Y-78374687D02*
X150943847Y-78565163D01*
X151372419Y-77946115D02*
X150372419Y-77946115D01*
X150372419Y-77946115D02*
X151372419Y-77374687D01*
X151372419Y-77374687D02*
X150372419Y-77374687D01*
X151372419Y-76898496D02*
X150372419Y-76898496D01*
X150372419Y-76898496D02*
X150372419Y-76660401D01*
X150372419Y-76660401D02*
X150420038Y-76517544D01*
X150420038Y-76517544D02*
X150515276Y-76422306D01*
X150515276Y-76422306D02*
X150610514Y-76374687D01*
X150610514Y-76374687D02*
X150800990Y-76327068D01*
X150800990Y-76327068D02*
X150943847Y-76327068D01*
X150943847Y-76327068D02*
X151134323Y-76374687D01*
X151134323Y-76374687D02*
X151229561Y-76422306D01*
X151229561Y-76422306D02*
X151324800Y-76517544D01*
X151324800Y-76517544D02*
X151372419Y-76660401D01*
X151372419Y-76660401D02*
X151372419Y-76898496D01*
X145991466Y-79446115D02*
X145991466Y-78684211D01*
X146372419Y-79065163D02*
X145610514Y-79065163D01*
X145467657Y-78255639D02*
X145420038Y-78208020D01*
X145420038Y-78208020D02*
X145372419Y-78112782D01*
X145372419Y-78112782D02*
X145372419Y-77874687D01*
X145372419Y-77874687D02*
X145420038Y-77779449D01*
X145420038Y-77779449D02*
X145467657Y-77731830D01*
X145467657Y-77731830D02*
X145562895Y-77684211D01*
X145562895Y-77684211D02*
X145658133Y-77684211D01*
X145658133Y-77684211D02*
X145800990Y-77731830D01*
X145800990Y-77731830D02*
X146372419Y-78303258D01*
X146372419Y-78303258D02*
X146372419Y-77684211D01*
X145705752Y-76827068D02*
X146372419Y-76827068D01*
X145324800Y-77065163D02*
X146039085Y-77303258D01*
X146039085Y-77303258D02*
X146039085Y-76684211D01*
X145372419Y-76446115D02*
X146372419Y-76112782D01*
X146372419Y-76112782D02*
X145372419Y-75779449D01*
X159303884Y-81372419D02*
X159303884Y-80372419D01*
X159303884Y-80372419D02*
X159637217Y-81086704D01*
X159637217Y-81086704D02*
X159970550Y-80372419D01*
X159970550Y-80372419D02*
X159970550Y-81372419D01*
X160637217Y-80372419D02*
X160827693Y-80372419D01*
X160827693Y-80372419D02*
X160922931Y-80420038D01*
X160922931Y-80420038D02*
X161018169Y-80515276D01*
X161018169Y-80515276D02*
X161065788Y-80705752D01*
X161065788Y-80705752D02*
X161065788Y-81039085D01*
X161065788Y-81039085D02*
X161018169Y-81229561D01*
X161018169Y-81229561D02*
X160922931Y-81324800D01*
X160922931Y-81324800D02*
X160827693Y-81372419D01*
X160827693Y-81372419D02*
X160637217Y-81372419D01*
X160637217Y-81372419D02*
X160541979Y-81324800D01*
X160541979Y-81324800D02*
X160446741Y-81229561D01*
X160446741Y-81229561D02*
X160399122Y-81039085D01*
X160399122Y-81039085D02*
X160399122Y-80705752D01*
X160399122Y-80705752D02*
X160446741Y-80515276D01*
X160446741Y-80515276D02*
X160541979Y-80420038D01*
X160541979Y-80420038D02*
X160637217Y-80372419D01*
X161351503Y-80372419D02*
X161922931Y-80372419D01*
X161637217Y-81372419D02*
X161637217Y-80372419D01*
X162446741Y-80372419D02*
X162637217Y-80372419D01*
X162637217Y-80372419D02*
X162732455Y-80420038D01*
X162732455Y-80420038D02*
X162827693Y-80515276D01*
X162827693Y-80515276D02*
X162875312Y-80705752D01*
X162875312Y-80705752D02*
X162875312Y-81039085D01*
X162875312Y-81039085D02*
X162827693Y-81229561D01*
X162827693Y-81229561D02*
X162732455Y-81324800D01*
X162732455Y-81324800D02*
X162637217Y-81372419D01*
X162637217Y-81372419D02*
X162446741Y-81372419D01*
X162446741Y-81372419D02*
X162351503Y-81324800D01*
X162351503Y-81324800D02*
X162256265Y-81229561D01*
X162256265Y-81229561D02*
X162208646Y-81039085D01*
X162208646Y-81039085D02*
X162208646Y-80705752D01*
X162208646Y-80705752D02*
X162256265Y-80515276D01*
X162256265Y-80515276D02*
X162351503Y-80420038D01*
X162351503Y-80420038D02*
X162446741Y-80372419D01*
X163875312Y-81372419D02*
X163541979Y-80896228D01*
X163303884Y-81372419D02*
X163303884Y-80372419D01*
X163303884Y-80372419D02*
X163684836Y-80372419D01*
X163684836Y-80372419D02*
X163780074Y-80420038D01*
X163780074Y-80420038D02*
X163827693Y-80467657D01*
X163827693Y-80467657D02*
X163875312Y-80562895D01*
X163875312Y-80562895D02*
X163875312Y-80705752D01*
X163875312Y-80705752D02*
X163827693Y-80800990D01*
X163827693Y-80800990D02*
X163780074Y-80848609D01*
X163780074Y-80848609D02*
X163684836Y-80896228D01*
X163684836Y-80896228D02*
X163303884Y-80896228D01*
X165065789Y-81372419D02*
X165065789Y-80372419D01*
X165065789Y-80372419D02*
X165303884Y-80372419D01*
X165303884Y-80372419D02*
X165446741Y-80420038D01*
X165446741Y-80420038D02*
X165541979Y-80515276D01*
X165541979Y-80515276D02*
X165589598Y-80610514D01*
X165589598Y-80610514D02*
X165637217Y-80800990D01*
X165637217Y-80800990D02*
X165637217Y-80943847D01*
X165637217Y-80943847D02*
X165589598Y-81134323D01*
X165589598Y-81134323D02*
X165541979Y-81229561D01*
X165541979Y-81229561D02*
X165446741Y-81324800D01*
X165446741Y-81324800D02*
X165303884Y-81372419D01*
X165303884Y-81372419D02*
X165065789Y-81372419D01*
X166637217Y-81372419D02*
X166303884Y-80896228D01*
X166065789Y-81372419D02*
X166065789Y-80372419D01*
X166065789Y-80372419D02*
X166446741Y-80372419D01*
X166446741Y-80372419D02*
X166541979Y-80420038D01*
X166541979Y-80420038D02*
X166589598Y-80467657D01*
X166589598Y-80467657D02*
X166637217Y-80562895D01*
X166637217Y-80562895D02*
X166637217Y-80705752D01*
X166637217Y-80705752D02*
X166589598Y-80800990D01*
X166589598Y-80800990D02*
X166541979Y-80848609D01*
X166541979Y-80848609D02*
X166446741Y-80896228D01*
X166446741Y-80896228D02*
X166065789Y-80896228D01*
X167065789Y-81372419D02*
X167065789Y-80372419D01*
X167399122Y-80372419D02*
X167732455Y-81372419D01*
X167732455Y-81372419D02*
X168065788Y-80372419D01*
X168399122Y-80848609D02*
X168732455Y-80848609D01*
X168875312Y-81372419D02*
X168399122Y-81372419D01*
X168399122Y-81372419D02*
X168399122Y-80372419D01*
X168399122Y-80372419D02*
X168875312Y-80372419D01*
X169875312Y-81372419D02*
X169541979Y-80896228D01*
X169303884Y-81372419D02*
X169303884Y-80372419D01*
X169303884Y-80372419D02*
X169684836Y-80372419D01*
X169684836Y-80372419D02*
X169780074Y-80420038D01*
X169780074Y-80420038D02*
X169827693Y-80467657D01*
X169827693Y-80467657D02*
X169875312Y-80562895D01*
X169875312Y-80562895D02*
X169875312Y-80705752D01*
X169875312Y-80705752D02*
X169827693Y-80800990D01*
X169827693Y-80800990D02*
X169780074Y-80848609D01*
X169780074Y-80848609D02*
X169684836Y-80896228D01*
X169684836Y-80896228D02*
X169303884Y-80896228D01*
X171372419Y-78946115D02*
X170372419Y-78946115D01*
X170372419Y-78946115D02*
X170372419Y-78565163D01*
X170372419Y-78565163D02*
X170420038Y-78469925D01*
X170420038Y-78469925D02*
X170467657Y-78422306D01*
X170467657Y-78422306D02*
X170562895Y-78374687D01*
X170562895Y-78374687D02*
X170705752Y-78374687D01*
X170705752Y-78374687D02*
X170800990Y-78422306D01*
X170800990Y-78422306D02*
X170848609Y-78469925D01*
X170848609Y-78469925D02*
X170896228Y-78565163D01*
X170896228Y-78565163D02*
X170896228Y-78946115D01*
X170372419Y-77946115D02*
X171181942Y-77946115D01*
X171181942Y-77946115D02*
X171277180Y-77898496D01*
X171277180Y-77898496D02*
X171324800Y-77850877D01*
X171324800Y-77850877D02*
X171372419Y-77755639D01*
X171372419Y-77755639D02*
X171372419Y-77565163D01*
X171372419Y-77565163D02*
X171324800Y-77469925D01*
X171324800Y-77469925D02*
X171277180Y-77422306D01*
X171277180Y-77422306D02*
X171181942Y-77374687D01*
X171181942Y-77374687D02*
X170372419Y-77374687D01*
X171372419Y-76422306D02*
X171372419Y-76898496D01*
X171372419Y-76898496D02*
X170372419Y-76898496D01*
X170991466Y-76088972D02*
X170991466Y-75327068D01*
X171372419Y-75708020D02*
X170610514Y-75708020D01*
X166372419Y-78946115D02*
X165372419Y-78946115D01*
X165372419Y-78946115D02*
X165372419Y-78565163D01*
X165372419Y-78565163D02*
X165420038Y-78469925D01*
X165420038Y-78469925D02*
X165467657Y-78422306D01*
X165467657Y-78422306D02*
X165562895Y-78374687D01*
X165562895Y-78374687D02*
X165705752Y-78374687D01*
X165705752Y-78374687D02*
X165800990Y-78422306D01*
X165800990Y-78422306D02*
X165848609Y-78469925D01*
X165848609Y-78469925D02*
X165896228Y-78565163D01*
X165896228Y-78565163D02*
X165896228Y-78946115D01*
X165372419Y-77946115D02*
X166181942Y-77946115D01*
X166181942Y-77946115D02*
X166277180Y-77898496D01*
X166277180Y-77898496D02*
X166324800Y-77850877D01*
X166324800Y-77850877D02*
X166372419Y-77755639D01*
X166372419Y-77755639D02*
X166372419Y-77565163D01*
X166372419Y-77565163D02*
X166324800Y-77469925D01*
X166324800Y-77469925D02*
X166277180Y-77422306D01*
X166277180Y-77422306D02*
X166181942Y-77374687D01*
X166181942Y-77374687D02*
X165372419Y-77374687D01*
X166372419Y-76422306D02*
X166372419Y-76898496D01*
X166372419Y-76898496D02*
X165372419Y-76898496D01*
X165991466Y-76088972D02*
X165991466Y-75327068D01*
X181372419Y-78946115D02*
X180372419Y-78946115D01*
X180372419Y-78946115D02*
X180372419Y-78708020D01*
X180372419Y-78708020D02*
X180420038Y-78565163D01*
X180420038Y-78565163D02*
X180515276Y-78469925D01*
X180515276Y-78469925D02*
X180610514Y-78422306D01*
X180610514Y-78422306D02*
X180800990Y-78374687D01*
X180800990Y-78374687D02*
X180943847Y-78374687D01*
X180943847Y-78374687D02*
X181134323Y-78422306D01*
X181134323Y-78422306D02*
X181229561Y-78469925D01*
X181229561Y-78469925D02*
X181324800Y-78565163D01*
X181324800Y-78565163D02*
X181372419Y-78708020D01*
X181372419Y-78708020D02*
X181372419Y-78946115D01*
X181372419Y-77946115D02*
X180372419Y-77946115D01*
X181372419Y-76898497D02*
X180896228Y-77231830D01*
X181372419Y-77469925D02*
X180372419Y-77469925D01*
X180372419Y-77469925D02*
X180372419Y-77088973D01*
X180372419Y-77088973D02*
X180420038Y-76993735D01*
X180420038Y-76993735D02*
X180467657Y-76946116D01*
X180467657Y-76946116D02*
X180562895Y-76898497D01*
X180562895Y-76898497D02*
X180705752Y-76898497D01*
X180705752Y-76898497D02*
X180800990Y-76946116D01*
X180800990Y-76946116D02*
X180848609Y-76993735D01*
X180848609Y-76993735D02*
X180896228Y-77088973D01*
X180896228Y-77088973D02*
X180896228Y-77469925D01*
X180991466Y-76469925D02*
X180991466Y-75708021D01*
X181372419Y-76088973D02*
X180610514Y-76088973D01*
X175872419Y-78946115D02*
X174872419Y-78946115D01*
X174872419Y-78946115D02*
X174872419Y-78708020D01*
X174872419Y-78708020D02*
X174920038Y-78565163D01*
X174920038Y-78565163D02*
X175015276Y-78469925D01*
X175015276Y-78469925D02*
X175110514Y-78422306D01*
X175110514Y-78422306D02*
X175300990Y-78374687D01*
X175300990Y-78374687D02*
X175443847Y-78374687D01*
X175443847Y-78374687D02*
X175634323Y-78422306D01*
X175634323Y-78422306D02*
X175729561Y-78469925D01*
X175729561Y-78469925D02*
X175824800Y-78565163D01*
X175824800Y-78565163D02*
X175872419Y-78708020D01*
X175872419Y-78708020D02*
X175872419Y-78946115D01*
X175872419Y-77946115D02*
X174872419Y-77946115D01*
X175872419Y-76898497D02*
X175396228Y-77231830D01*
X175872419Y-77469925D02*
X174872419Y-77469925D01*
X174872419Y-77469925D02*
X174872419Y-77088973D01*
X174872419Y-77088973D02*
X174920038Y-76993735D01*
X174920038Y-76993735D02*
X174967657Y-76946116D01*
X174967657Y-76946116D02*
X175062895Y-76898497D01*
X175062895Y-76898497D02*
X175205752Y-76898497D01*
X175205752Y-76898497D02*
X175300990Y-76946116D01*
X175300990Y-76946116D02*
X175348609Y-76993735D01*
X175348609Y-76993735D02*
X175396228Y-77088973D01*
X175396228Y-77088973D02*
X175396228Y-77469925D01*
X175491466Y-76469925D02*
X175491466Y-75708021D01*
X161348609Y-78946115D02*
X161348609Y-78612782D01*
X161872419Y-78469925D02*
X161872419Y-78946115D01*
X161872419Y-78946115D02*
X160872419Y-78946115D01*
X160872419Y-78946115D02*
X160872419Y-78469925D01*
X161872419Y-78041353D02*
X160872419Y-78041353D01*
X160872419Y-78041353D02*
X161872419Y-77469925D01*
X161872419Y-77469925D02*
X160872419Y-77469925D01*
X161491466Y-76993734D02*
X161491466Y-76231830D01*
X161872419Y-76612782D02*
X161110514Y-76612782D01*
X155848609Y-78446115D02*
X155848609Y-78112782D01*
X156372419Y-77969925D02*
X156372419Y-78446115D01*
X156372419Y-78446115D02*
X155372419Y-78446115D01*
X155372419Y-78446115D02*
X155372419Y-77969925D01*
X156372419Y-77541353D02*
X155372419Y-77541353D01*
X155372419Y-77541353D02*
X156372419Y-76969925D01*
X156372419Y-76969925D02*
X155372419Y-76969925D01*
X155991466Y-76493734D02*
X155991466Y-75731830D01*
D11*
X160076667Y-71054318D02*
X160076667Y-71961461D01*
X160076667Y-71961461D02*
X160016190Y-72142889D01*
X160016190Y-72142889D02*
X159895238Y-72263842D01*
X159895238Y-72263842D02*
X159713809Y-72324318D01*
X159713809Y-72324318D02*
X159592857Y-72324318D01*
X160862857Y-71598603D02*
X160741905Y-71538127D01*
X160741905Y-71538127D02*
X160681428Y-71477651D01*
X160681428Y-71477651D02*
X160620952Y-71356699D01*
X160620952Y-71356699D02*
X160620952Y-71296222D01*
X160620952Y-71296222D02*
X160681428Y-71175270D01*
X160681428Y-71175270D02*
X160741905Y-71114794D01*
X160741905Y-71114794D02*
X160862857Y-71054318D01*
X160862857Y-71054318D02*
X161104762Y-71054318D01*
X161104762Y-71054318D02*
X161225714Y-71114794D01*
X161225714Y-71114794D02*
X161286190Y-71175270D01*
X161286190Y-71175270D02*
X161346667Y-71296222D01*
X161346667Y-71296222D02*
X161346667Y-71356699D01*
X161346667Y-71356699D02*
X161286190Y-71477651D01*
X161286190Y-71477651D02*
X161225714Y-71538127D01*
X161225714Y-71538127D02*
X161104762Y-71598603D01*
X161104762Y-71598603D02*
X160862857Y-71598603D01*
X160862857Y-71598603D02*
X160741905Y-71659080D01*
X160741905Y-71659080D02*
X160681428Y-71719556D01*
X160681428Y-71719556D02*
X160620952Y-71840508D01*
X160620952Y-71840508D02*
X160620952Y-72082413D01*
X160620952Y-72082413D02*
X160681428Y-72203365D01*
X160681428Y-72203365D02*
X160741905Y-72263842D01*
X160741905Y-72263842D02*
X160862857Y-72324318D01*
X160862857Y-72324318D02*
X161104762Y-72324318D01*
X161104762Y-72324318D02*
X161225714Y-72263842D01*
X161225714Y-72263842D02*
X161286190Y-72203365D01*
X161286190Y-72203365D02*
X161346667Y-72082413D01*
X161346667Y-72082413D02*
X161346667Y-71840508D01*
X161346667Y-71840508D02*
X161286190Y-71719556D01*
X161286190Y-71719556D02*
X161225714Y-71659080D01*
X161225714Y-71659080D02*
X161104762Y-71598603D01*
X154436667Y-146882318D02*
X154436667Y-147789461D01*
X154436667Y-147789461D02*
X154376190Y-147970889D01*
X154376190Y-147970889D02*
X154255238Y-148091842D01*
X154255238Y-148091842D02*
X154073809Y-148152318D01*
X154073809Y-148152318D02*
X153952857Y-148152318D01*
X154920476Y-146882318D02*
X155767143Y-146882318D01*
X155767143Y-146882318D02*
X155222857Y-148152318D01*
X92564667Y-147128318D02*
X92564667Y-148035461D01*
X92564667Y-148035461D02*
X92504190Y-148216889D01*
X92504190Y-148216889D02*
X92383238Y-148337842D01*
X92383238Y-148337842D02*
X92201809Y-148398318D01*
X92201809Y-148398318D02*
X92080857Y-148398318D01*
X93713714Y-147128318D02*
X93471809Y-147128318D01*
X93471809Y-147128318D02*
X93350857Y-147188794D01*
X93350857Y-147188794D02*
X93290381Y-147249270D01*
X93290381Y-147249270D02*
X93169428Y-147430699D01*
X93169428Y-147430699D02*
X93108952Y-147672603D01*
X93108952Y-147672603D02*
X93108952Y-148156413D01*
X93108952Y-148156413D02*
X93169428Y-148277365D01*
X93169428Y-148277365D02*
X93229905Y-148337842D01*
X93229905Y-148337842D02*
X93350857Y-148398318D01*
X93350857Y-148398318D02*
X93592762Y-148398318D01*
X93592762Y-148398318D02*
X93713714Y-148337842D01*
X93713714Y-148337842D02*
X93774190Y-148277365D01*
X93774190Y-148277365D02*
X93834667Y-148156413D01*
X93834667Y-148156413D02*
X93834667Y-147854032D01*
X93834667Y-147854032D02*
X93774190Y-147733080D01*
X93774190Y-147733080D02*
X93713714Y-147672603D01*
X93713714Y-147672603D02*
X93592762Y-147612127D01*
X93592762Y-147612127D02*
X93350857Y-147612127D01*
X93350857Y-147612127D02*
X93229905Y-147672603D01*
X93229905Y-147672603D02*
X93169428Y-147733080D01*
X93169428Y-147733080D02*
X93108952Y-147854032D01*
X107564667Y-147128318D02*
X107564667Y-148035461D01*
X107564667Y-148035461D02*
X107504190Y-148216889D01*
X107504190Y-148216889D02*
X107383238Y-148337842D01*
X107383238Y-148337842D02*
X107201809Y-148398318D01*
X107201809Y-148398318D02*
X107080857Y-148398318D01*
X108774190Y-147128318D02*
X108169428Y-147128318D01*
X108169428Y-147128318D02*
X108108952Y-147733080D01*
X108108952Y-147733080D02*
X108169428Y-147672603D01*
X108169428Y-147672603D02*
X108290381Y-147612127D01*
X108290381Y-147612127D02*
X108592762Y-147612127D01*
X108592762Y-147612127D02*
X108713714Y-147672603D01*
X108713714Y-147672603D02*
X108774190Y-147733080D01*
X108774190Y-147733080D02*
X108834667Y-147854032D01*
X108834667Y-147854032D02*
X108834667Y-148156413D01*
X108834667Y-148156413D02*
X108774190Y-148277365D01*
X108774190Y-148277365D02*
X108713714Y-148337842D01*
X108713714Y-148337842D02*
X108592762Y-148398318D01*
X108592762Y-148398318D02*
X108290381Y-148398318D01*
X108290381Y-148398318D02*
X108169428Y-148337842D01*
X108169428Y-148337842D02*
X108108952Y-148277365D01*
X137564667Y-147128318D02*
X137564667Y-148035461D01*
X137564667Y-148035461D02*
X137504190Y-148216889D01*
X137504190Y-148216889D02*
X137383238Y-148337842D01*
X137383238Y-148337842D02*
X137201809Y-148398318D01*
X137201809Y-148398318D02*
X137080857Y-148398318D01*
X138713714Y-147551651D02*
X138713714Y-148398318D01*
X138411333Y-147067842D02*
X138108952Y-147974984D01*
X138108952Y-147974984D02*
X138895143Y-147974984D01*
X122564667Y-147128318D02*
X122564667Y-148035461D01*
X122564667Y-148035461D02*
X122504190Y-148216889D01*
X122504190Y-148216889D02*
X122383238Y-148337842D01*
X122383238Y-148337842D02*
X122201809Y-148398318D01*
X122201809Y-148398318D02*
X122080857Y-148398318D01*
X123048476Y-147128318D02*
X123834667Y-147128318D01*
X123834667Y-147128318D02*
X123411333Y-147612127D01*
X123411333Y-147612127D02*
X123592762Y-147612127D01*
X123592762Y-147612127D02*
X123713714Y-147672603D01*
X123713714Y-147672603D02*
X123774190Y-147733080D01*
X123774190Y-147733080D02*
X123834667Y-147854032D01*
X123834667Y-147854032D02*
X123834667Y-148156413D01*
X123834667Y-148156413D02*
X123774190Y-148277365D01*
X123774190Y-148277365D02*
X123713714Y-148337842D01*
X123713714Y-148337842D02*
X123592762Y-148398318D01*
X123592762Y-148398318D02*
X123229905Y-148398318D01*
X123229905Y-148398318D02*
X123108952Y-148337842D01*
X123108952Y-148337842D02*
X123048476Y-148277365D01*
D10*
X176606580Y-108158095D02*
X175797057Y-108158095D01*
X175797057Y-108158095D02*
X175701819Y-108205714D01*
X175701819Y-108205714D02*
X175654200Y-108253333D01*
X175654200Y-108253333D02*
X175606580Y-108348571D01*
X175606580Y-108348571D02*
X175606580Y-108539047D01*
X175606580Y-108539047D02*
X175654200Y-108634285D01*
X175654200Y-108634285D02*
X175701819Y-108681904D01*
X175701819Y-108681904D02*
X175797057Y-108729523D01*
X175797057Y-108729523D02*
X176606580Y-108729523D01*
X176178009Y-109348571D02*
X176225628Y-109253333D01*
X176225628Y-109253333D02*
X176273247Y-109205714D01*
X176273247Y-109205714D02*
X176368485Y-109158095D01*
X176368485Y-109158095D02*
X176416104Y-109158095D01*
X176416104Y-109158095D02*
X176511342Y-109205714D01*
X176511342Y-109205714D02*
X176558961Y-109253333D01*
X176558961Y-109253333D02*
X176606580Y-109348571D01*
X176606580Y-109348571D02*
X176606580Y-109539047D01*
X176606580Y-109539047D02*
X176558961Y-109634285D01*
X176558961Y-109634285D02*
X176511342Y-109681904D01*
X176511342Y-109681904D02*
X176416104Y-109729523D01*
X176416104Y-109729523D02*
X176368485Y-109729523D01*
X176368485Y-109729523D02*
X176273247Y-109681904D01*
X176273247Y-109681904D02*
X176225628Y-109634285D01*
X176225628Y-109634285D02*
X176178009Y-109539047D01*
X176178009Y-109539047D02*
X176178009Y-109348571D01*
X176178009Y-109348571D02*
X176130390Y-109253333D01*
X176130390Y-109253333D02*
X176082771Y-109205714D01*
X176082771Y-109205714D02*
X175987533Y-109158095D01*
X175987533Y-109158095D02*
X175797057Y-109158095D01*
X175797057Y-109158095D02*
X175701819Y-109205714D01*
X175701819Y-109205714D02*
X175654200Y-109253333D01*
X175654200Y-109253333D02*
X175606580Y-109348571D01*
X175606580Y-109348571D02*
X175606580Y-109539047D01*
X175606580Y-109539047D02*
X175654200Y-109634285D01*
X175654200Y-109634285D02*
X175701819Y-109681904D01*
X175701819Y-109681904D02*
X175797057Y-109729523D01*
X175797057Y-109729523D02*
X175987533Y-109729523D01*
X175987533Y-109729523D02*
X176082771Y-109681904D01*
X176082771Y-109681904D02*
X176130390Y-109634285D01*
X176130390Y-109634285D02*
X176178009Y-109539047D01*
X169341580Y-102111884D02*
X170341580Y-102111884D01*
X169341580Y-102588074D02*
X170341580Y-102588074D01*
X170341580Y-102588074D02*
X169341580Y-103159502D01*
X169341580Y-103159502D02*
X170341580Y-103159502D01*
X169722533Y-103635693D02*
X169722533Y-104397598D01*
X169341580Y-104016645D02*
X170103485Y-104016645D01*
X174564342Y-103842265D02*
X174611961Y-103889884D01*
X174611961Y-103889884D02*
X174659580Y-103985122D01*
X174659580Y-103985122D02*
X174659580Y-104223217D01*
X174659580Y-104223217D02*
X174611961Y-104318455D01*
X174611961Y-104318455D02*
X174564342Y-104366074D01*
X174564342Y-104366074D02*
X174469104Y-104413693D01*
X174469104Y-104413693D02*
X174373866Y-104413693D01*
X174373866Y-104413693D02*
X174231009Y-104366074D01*
X174231009Y-104366074D02*
X173659580Y-103794646D01*
X173659580Y-103794646D02*
X173659580Y-104413693D01*
X174326247Y-105270836D02*
X173659580Y-105270836D01*
X174707200Y-105032741D02*
X173992914Y-104794646D01*
X173992914Y-104794646D02*
X173992914Y-105413693D01*
X174659580Y-105651789D02*
X173659580Y-105985122D01*
X173659580Y-105985122D02*
X174659580Y-106318455D01*
X174040533Y-108175599D02*
X174040533Y-108937504D01*
X174326247Y-110175599D02*
X174040533Y-110937504D01*
X174040533Y-110937504D02*
X173754819Y-110175599D01*
X174659580Y-112080361D02*
X174659580Y-112699408D01*
X174659580Y-112699408D02*
X174278628Y-112366075D01*
X174278628Y-112366075D02*
X174278628Y-112508932D01*
X174278628Y-112508932D02*
X174231009Y-112604170D01*
X174231009Y-112604170D02*
X174183390Y-112651789D01*
X174183390Y-112651789D02*
X174088152Y-112699408D01*
X174088152Y-112699408D02*
X173850057Y-112699408D01*
X173850057Y-112699408D02*
X173754819Y-112651789D01*
X173754819Y-112651789D02*
X173707200Y-112604170D01*
X173707200Y-112604170D02*
X173659580Y-112508932D01*
X173659580Y-112508932D02*
X173659580Y-112223218D01*
X173659580Y-112223218D02*
X173707200Y-112127980D01*
X173707200Y-112127980D02*
X173754819Y-112080361D01*
X173754819Y-113127980D02*
X173707200Y-113175599D01*
X173707200Y-113175599D02*
X173659580Y-113127980D01*
X173659580Y-113127980D02*
X173707200Y-113080361D01*
X173707200Y-113080361D02*
X173754819Y-113127980D01*
X173754819Y-113127980D02*
X173659580Y-113127980D01*
X174659580Y-113508932D02*
X174659580Y-114127979D01*
X174659580Y-114127979D02*
X174278628Y-113794646D01*
X174278628Y-113794646D02*
X174278628Y-113937503D01*
X174278628Y-113937503D02*
X174231009Y-114032741D01*
X174231009Y-114032741D02*
X174183390Y-114080360D01*
X174183390Y-114080360D02*
X174088152Y-114127979D01*
X174088152Y-114127979D02*
X173850057Y-114127979D01*
X173850057Y-114127979D02*
X173754819Y-114080360D01*
X173754819Y-114080360D02*
X173707200Y-114032741D01*
X173707200Y-114032741D02*
X173659580Y-113937503D01*
X173659580Y-113937503D02*
X173659580Y-113651789D01*
X173659580Y-113651789D02*
X173707200Y-113556551D01*
X173707200Y-113556551D02*
X173754819Y-113508932D01*
X174659580Y-114413694D02*
X173659580Y-114747027D01*
X173659580Y-114747027D02*
X174659580Y-115080360D01*
X181517580Y-111954360D02*
X181517580Y-112144836D01*
X181517580Y-112144836D02*
X181469961Y-112240074D01*
X181469961Y-112240074D02*
X181374723Y-112335312D01*
X181374723Y-112335312D02*
X181184247Y-112382931D01*
X181184247Y-112382931D02*
X180850914Y-112382931D01*
X180850914Y-112382931D02*
X180660438Y-112335312D01*
X180660438Y-112335312D02*
X180565200Y-112240074D01*
X180565200Y-112240074D02*
X180517580Y-112144836D01*
X180517580Y-112144836D02*
X180517580Y-111954360D01*
X180517580Y-111954360D02*
X180565200Y-111859122D01*
X180565200Y-111859122D02*
X180660438Y-111763884D01*
X180660438Y-111763884D02*
X180850914Y-111716265D01*
X180850914Y-111716265D02*
X181184247Y-111716265D01*
X181184247Y-111716265D02*
X181374723Y-111763884D01*
X181374723Y-111763884D02*
X181469961Y-111859122D01*
X181469961Y-111859122D02*
X181517580Y-111954360D01*
X181517580Y-112811503D02*
X180708057Y-112811503D01*
X180708057Y-112811503D02*
X180612819Y-112859122D01*
X180612819Y-112859122D02*
X180565200Y-112906741D01*
X180565200Y-112906741D02*
X180517580Y-113001979D01*
X180517580Y-113001979D02*
X180517580Y-113192455D01*
X180517580Y-113192455D02*
X180565200Y-113287693D01*
X180565200Y-113287693D02*
X180612819Y-113335312D01*
X180612819Y-113335312D02*
X180708057Y-113382931D01*
X180708057Y-113382931D02*
X181517580Y-113382931D01*
X181517580Y-113716265D02*
X181517580Y-114287693D01*
X180517580Y-114001979D02*
X181517580Y-114001979D01*
X180898533Y-115382932D02*
X180898533Y-116144837D01*
X180517580Y-101857884D02*
X181517580Y-101857884D01*
X180517580Y-102334074D02*
X181517580Y-102334074D01*
X181517580Y-102334074D02*
X180517580Y-102905502D01*
X180517580Y-102905502D02*
X181517580Y-102905502D01*
X180898533Y-104143598D02*
X180898533Y-104905503D01*
X170341580Y-111700360D02*
X170341580Y-111890836D01*
X170341580Y-111890836D02*
X170293961Y-111986074D01*
X170293961Y-111986074D02*
X170198723Y-112081312D01*
X170198723Y-112081312D02*
X170008247Y-112128931D01*
X170008247Y-112128931D02*
X169674914Y-112128931D01*
X169674914Y-112128931D02*
X169484438Y-112081312D01*
X169484438Y-112081312D02*
X169389200Y-111986074D01*
X169389200Y-111986074D02*
X169341580Y-111890836D01*
X169341580Y-111890836D02*
X169341580Y-111700360D01*
X169341580Y-111700360D02*
X169389200Y-111605122D01*
X169389200Y-111605122D02*
X169484438Y-111509884D01*
X169484438Y-111509884D02*
X169674914Y-111462265D01*
X169674914Y-111462265D02*
X170008247Y-111462265D01*
X170008247Y-111462265D02*
X170198723Y-111509884D01*
X170198723Y-111509884D02*
X170293961Y-111605122D01*
X170293961Y-111605122D02*
X170341580Y-111700360D01*
X170341580Y-112557503D02*
X169532057Y-112557503D01*
X169532057Y-112557503D02*
X169436819Y-112605122D01*
X169436819Y-112605122D02*
X169389200Y-112652741D01*
X169389200Y-112652741D02*
X169341580Y-112747979D01*
X169341580Y-112747979D02*
X169341580Y-112938455D01*
X169341580Y-112938455D02*
X169389200Y-113033693D01*
X169389200Y-113033693D02*
X169436819Y-113081312D01*
X169436819Y-113081312D02*
X169532057Y-113128931D01*
X169532057Y-113128931D02*
X170341580Y-113128931D01*
X170341580Y-113462265D02*
X170341580Y-114033693D01*
X169341580Y-113747979D02*
X170341580Y-113747979D01*
X169722533Y-115128932D02*
X169722533Y-115890837D01*
X169341580Y-115509884D02*
X170103485Y-115509884D01*
X156209904Y-97308580D02*
X156209904Y-96499057D01*
X156209904Y-96499057D02*
X156162285Y-96403819D01*
X156162285Y-96403819D02*
X156114666Y-96356200D01*
X156114666Y-96356200D02*
X156019428Y-96308580D01*
X156019428Y-96308580D02*
X155828952Y-96308580D01*
X155828952Y-96308580D02*
X155733714Y-96356200D01*
X155733714Y-96356200D02*
X155686095Y-96403819D01*
X155686095Y-96403819D02*
X155638476Y-96499057D01*
X155638476Y-96499057D02*
X155638476Y-97308580D01*
X155209904Y-97213342D02*
X155162285Y-97260961D01*
X155162285Y-97260961D02*
X155067047Y-97308580D01*
X155067047Y-97308580D02*
X154828952Y-97308580D01*
X154828952Y-97308580D02*
X154733714Y-97260961D01*
X154733714Y-97260961D02*
X154686095Y-97213342D01*
X154686095Y-97213342D02*
X154638476Y-97118104D01*
X154638476Y-97118104D02*
X154638476Y-97022866D01*
X154638476Y-97022866D02*
X154686095Y-96880009D01*
X154686095Y-96880009D02*
X155257523Y-96308580D01*
X155257523Y-96308580D02*
X154638476Y-96308580D01*
X159398687Y-84804819D02*
X159446306Y-84757200D01*
X159446306Y-84757200D02*
X159589163Y-84709580D01*
X159589163Y-84709580D02*
X159684401Y-84709580D01*
X159684401Y-84709580D02*
X159827258Y-84757200D01*
X159827258Y-84757200D02*
X159922496Y-84852438D01*
X159922496Y-84852438D02*
X159970115Y-84947676D01*
X159970115Y-84947676D02*
X160017734Y-85138152D01*
X160017734Y-85138152D02*
X160017734Y-85281009D01*
X160017734Y-85281009D02*
X159970115Y-85471485D01*
X159970115Y-85471485D02*
X159922496Y-85566723D01*
X159922496Y-85566723D02*
X159827258Y-85661961D01*
X159827258Y-85661961D02*
X159684401Y-85709580D01*
X159684401Y-85709580D02*
X159589163Y-85709580D01*
X159589163Y-85709580D02*
X159446306Y-85661961D01*
X159446306Y-85661961D02*
X159398687Y-85614342D01*
X158684401Y-85709580D02*
X158684401Y-84995295D01*
X158684401Y-84995295D02*
X158732020Y-84852438D01*
X158732020Y-84852438D02*
X158827258Y-84757200D01*
X158827258Y-84757200D02*
X158970115Y-84709580D01*
X158970115Y-84709580D02*
X159065353Y-84709580D01*
X158208210Y-84709580D02*
X158208210Y-85709580D01*
X158208210Y-85709580D02*
X157874877Y-84995295D01*
X157874877Y-84995295D02*
X157541544Y-85709580D01*
X157541544Y-85709580D02*
X157541544Y-84709580D01*
X156493925Y-84804819D02*
X156541544Y-84757200D01*
X156541544Y-84757200D02*
X156684401Y-84709580D01*
X156684401Y-84709580D02*
X156779639Y-84709580D01*
X156779639Y-84709580D02*
X156922496Y-84757200D01*
X156922496Y-84757200D02*
X157017734Y-84852438D01*
X157017734Y-84852438D02*
X157065353Y-84947676D01*
X157065353Y-84947676D02*
X157112972Y-85138152D01*
X157112972Y-85138152D02*
X157112972Y-85281009D01*
X157112972Y-85281009D02*
X157065353Y-85471485D01*
X157065353Y-85471485D02*
X157017734Y-85566723D01*
X157017734Y-85566723D02*
X156922496Y-85661961D01*
X156922496Y-85661961D02*
X156779639Y-85709580D01*
X156779639Y-85709580D02*
X156684401Y-85709580D01*
X156684401Y-85709580D02*
X156541544Y-85661961D01*
X156541544Y-85661961D02*
X156493925Y-85614342D01*
X156065353Y-85709580D02*
X156065353Y-84900057D01*
X156065353Y-84900057D02*
X156017734Y-84804819D01*
X156017734Y-84804819D02*
X155970115Y-84757200D01*
X155970115Y-84757200D02*
X155874877Y-84709580D01*
X155874877Y-84709580D02*
X155684401Y-84709580D01*
X155684401Y-84709580D02*
X155589163Y-84757200D01*
X155589163Y-84757200D02*
X155541544Y-84804819D01*
X155541544Y-84804819D02*
X155493925Y-84900057D01*
X155493925Y-84900057D02*
X155493925Y-85709580D01*
X155017734Y-85090533D02*
X154255830Y-85090533D01*
X153827258Y-85614342D02*
X153779639Y-85661961D01*
X153779639Y-85661961D02*
X153684401Y-85709580D01*
X153684401Y-85709580D02*
X153446306Y-85709580D01*
X153446306Y-85709580D02*
X153351068Y-85661961D01*
X153351068Y-85661961D02*
X153303449Y-85614342D01*
X153303449Y-85614342D02*
X153255830Y-85519104D01*
X153255830Y-85519104D02*
X153255830Y-85423866D01*
X153255830Y-85423866D02*
X153303449Y-85281009D01*
X153303449Y-85281009D02*
X153874877Y-84709580D01*
X153874877Y-84709580D02*
X153255830Y-84709580D01*
X152922496Y-85709580D02*
X152303449Y-85709580D01*
X152303449Y-85709580D02*
X152636782Y-85328628D01*
X152636782Y-85328628D02*
X152493925Y-85328628D01*
X152493925Y-85328628D02*
X152398687Y-85281009D01*
X152398687Y-85281009D02*
X152351068Y-85233390D01*
X152351068Y-85233390D02*
X152303449Y-85138152D01*
X152303449Y-85138152D02*
X152303449Y-84900057D01*
X152303449Y-84900057D02*
X152351068Y-84804819D01*
X152351068Y-84804819D02*
X152398687Y-84757200D01*
X152398687Y-84757200D02*
X152493925Y-84709580D01*
X152493925Y-84709580D02*
X152779639Y-84709580D01*
X152779639Y-84709580D02*
X152874877Y-84757200D01*
X152874877Y-84757200D02*
X152922496Y-84804819D01*
X151351068Y-84709580D02*
X151922496Y-84709580D01*
X151636782Y-84709580D02*
X151636782Y-85709580D01*
X151636782Y-85709580D02*
X151732020Y-85566723D01*
X151732020Y-85566723D02*
X151827258Y-85471485D01*
X151827258Y-85471485D02*
X151922496Y-85423866D01*
X151017734Y-85709580D02*
X150351068Y-85709580D01*
X150351068Y-85709580D02*
X150779639Y-84709580D01*
D12*
X173632694Y-91374800D02*
X173795980Y-91429228D01*
X173795980Y-91429228D02*
X173850409Y-91483657D01*
X173850409Y-91483657D02*
X173904837Y-91592514D01*
X173904837Y-91592514D02*
X173904837Y-91755800D01*
X173904837Y-91755800D02*
X173850409Y-91864657D01*
X173850409Y-91864657D02*
X173795980Y-91919086D01*
X173795980Y-91919086D02*
X173687123Y-91973514D01*
X173687123Y-91973514D02*
X173251694Y-91973514D01*
X173251694Y-91973514D02*
X173251694Y-90830514D01*
X173251694Y-90830514D02*
X173632694Y-90830514D01*
X173632694Y-90830514D02*
X173741552Y-90884943D01*
X173741552Y-90884943D02*
X173795980Y-90939371D01*
X173795980Y-90939371D02*
X173850409Y-91048228D01*
X173850409Y-91048228D02*
X173850409Y-91157086D01*
X173850409Y-91157086D02*
X173795980Y-91265943D01*
X173795980Y-91265943D02*
X173741552Y-91320371D01*
X173741552Y-91320371D02*
X173632694Y-91374800D01*
X173632694Y-91374800D02*
X173251694Y-91374800D01*
X174340266Y-91919086D02*
X174503552Y-91973514D01*
X174503552Y-91973514D02*
X174775694Y-91973514D01*
X174775694Y-91973514D02*
X174884552Y-91919086D01*
X174884552Y-91919086D02*
X174938980Y-91864657D01*
X174938980Y-91864657D02*
X174993409Y-91755800D01*
X174993409Y-91755800D02*
X174993409Y-91646943D01*
X174993409Y-91646943D02*
X174938980Y-91538086D01*
X174938980Y-91538086D02*
X174884552Y-91483657D01*
X174884552Y-91483657D02*
X174775694Y-91429228D01*
X174775694Y-91429228D02*
X174557980Y-91374800D01*
X174557980Y-91374800D02*
X174449123Y-91320371D01*
X174449123Y-91320371D02*
X174394694Y-91265943D01*
X174394694Y-91265943D02*
X174340266Y-91157086D01*
X174340266Y-91157086D02*
X174340266Y-91048228D01*
X174340266Y-91048228D02*
X174394694Y-90939371D01*
X174394694Y-90939371D02*
X174449123Y-90884943D01*
X174449123Y-90884943D02*
X174557980Y-90830514D01*
X174557980Y-90830514D02*
X174830123Y-90830514D01*
X174830123Y-90830514D02*
X174993409Y-90884943D01*
X175428837Y-91919086D02*
X175592123Y-91973514D01*
X175592123Y-91973514D02*
X175864265Y-91973514D01*
X175864265Y-91973514D02*
X175973123Y-91919086D01*
X175973123Y-91919086D02*
X176027551Y-91864657D01*
X176027551Y-91864657D02*
X176081980Y-91755800D01*
X176081980Y-91755800D02*
X176081980Y-91646943D01*
X176081980Y-91646943D02*
X176027551Y-91538086D01*
X176027551Y-91538086D02*
X175973123Y-91483657D01*
X175973123Y-91483657D02*
X175864265Y-91429228D01*
X175864265Y-91429228D02*
X175646551Y-91374800D01*
X175646551Y-91374800D02*
X175537694Y-91320371D01*
X175537694Y-91320371D02*
X175483265Y-91265943D01*
X175483265Y-91265943D02*
X175428837Y-91157086D01*
X175428837Y-91157086D02*
X175428837Y-91048228D01*
X175428837Y-91048228D02*
X175483265Y-90939371D01*
X175483265Y-90939371D02*
X175537694Y-90884943D01*
X175537694Y-90884943D02*
X175646551Y-90830514D01*
X175646551Y-90830514D02*
X175918694Y-90830514D01*
X175918694Y-90830514D02*
X176081980Y-90884943D01*
X177170551Y-91973514D02*
X176517408Y-91973514D01*
X176843979Y-91973514D02*
X176843979Y-90830514D01*
X176843979Y-90830514D02*
X176735122Y-90993800D01*
X176735122Y-90993800D02*
X176626265Y-91102657D01*
X176626265Y-91102657D02*
X176517408Y-91157086D01*
D10*
X99201404Y-131344580D02*
X99201404Y-130535057D01*
X99201404Y-130535057D02*
X99153785Y-130439819D01*
X99153785Y-130439819D02*
X99106166Y-130392200D01*
X99106166Y-130392200D02*
X99010928Y-130344580D01*
X99010928Y-130344580D02*
X98820452Y-130344580D01*
X98820452Y-130344580D02*
X98725214Y-130392200D01*
X98725214Y-130392200D02*
X98677595Y-130439819D01*
X98677595Y-130439819D02*
X98629976Y-130535057D01*
X98629976Y-130535057D02*
X98629976Y-131344580D01*
X98249023Y-131344580D02*
X97582357Y-131344580D01*
X97582357Y-131344580D02*
X98010928Y-130344580D01*
X94794262Y-127219419D02*
X95413309Y-127219419D01*
X95413309Y-127219419D02*
X95079976Y-127600371D01*
X95079976Y-127600371D02*
X95222833Y-127600371D01*
X95222833Y-127600371D02*
X95318071Y-127647990D01*
X95318071Y-127647990D02*
X95365690Y-127695609D01*
X95365690Y-127695609D02*
X95413309Y-127790847D01*
X95413309Y-127790847D02*
X95413309Y-128028942D01*
X95413309Y-128028942D02*
X95365690Y-128124180D01*
X95365690Y-128124180D02*
X95318071Y-128171800D01*
X95318071Y-128171800D02*
X95222833Y-128219419D01*
X95222833Y-128219419D02*
X94937119Y-128219419D01*
X94937119Y-128219419D02*
X94841881Y-128171800D01*
X94841881Y-128171800D02*
X94794262Y-128124180D01*
X95841881Y-128124180D02*
X95889500Y-128171800D01*
X95889500Y-128171800D02*
X95841881Y-128219419D01*
X95841881Y-128219419D02*
X95794262Y-128171800D01*
X95794262Y-128171800D02*
X95841881Y-128124180D01*
X95841881Y-128124180D02*
X95841881Y-128219419D01*
X96222833Y-127219419D02*
X96841880Y-127219419D01*
X96841880Y-127219419D02*
X96508547Y-127600371D01*
X96508547Y-127600371D02*
X96651404Y-127600371D01*
X96651404Y-127600371D02*
X96746642Y-127647990D01*
X96746642Y-127647990D02*
X96794261Y-127695609D01*
X96794261Y-127695609D02*
X96841880Y-127790847D01*
X96841880Y-127790847D02*
X96841880Y-128028942D01*
X96841880Y-128028942D02*
X96794261Y-128124180D01*
X96794261Y-128124180D02*
X96746642Y-128171800D01*
X96746642Y-128171800D02*
X96651404Y-128219419D01*
X96651404Y-128219419D02*
X96365690Y-128219419D01*
X96365690Y-128219419D02*
X96270452Y-128171800D01*
X96270452Y-128171800D02*
X96222833Y-128124180D01*
X97127595Y-127219419D02*
X97460928Y-128219419D01*
X97460928Y-128219419D02*
X97794261Y-127219419D01*
X98127595Y-127838466D02*
X98889500Y-127838466D01*
X99365690Y-127552752D02*
X100127595Y-127838466D01*
X100127595Y-127838466D02*
X99365690Y-128124180D01*
X100556166Y-127314657D02*
X100603785Y-127267038D01*
X100603785Y-127267038D02*
X100699023Y-127219419D01*
X100699023Y-127219419D02*
X100937118Y-127219419D01*
X100937118Y-127219419D02*
X101032356Y-127267038D01*
X101032356Y-127267038D02*
X101079975Y-127314657D01*
X101079975Y-127314657D02*
X101127594Y-127409895D01*
X101127594Y-127409895D02*
X101127594Y-127505133D01*
X101127594Y-127505133D02*
X101079975Y-127647990D01*
X101079975Y-127647990D02*
X100508547Y-128219419D01*
X100508547Y-128219419D02*
X101127594Y-128219419D01*
X101984737Y-127552752D02*
X101984737Y-128219419D01*
X101746642Y-127171800D02*
X101508547Y-127886085D01*
X101508547Y-127886085D02*
X102127594Y-127886085D01*
X102365690Y-127219419D02*
X102699023Y-128219419D01*
X102699023Y-128219419D02*
X103032356Y-127219419D01*
X99201404Y-110008580D02*
X99201404Y-109199057D01*
X99201404Y-109199057D02*
X99153785Y-109103819D01*
X99153785Y-109103819D02*
X99106166Y-109056200D01*
X99106166Y-109056200D02*
X99010928Y-109008580D01*
X99010928Y-109008580D02*
X98820452Y-109008580D01*
X98820452Y-109008580D02*
X98725214Y-109056200D01*
X98725214Y-109056200D02*
X98677595Y-109103819D01*
X98677595Y-109103819D02*
X98629976Y-109199057D01*
X98629976Y-109199057D02*
X98629976Y-110008580D01*
X97677595Y-110008580D02*
X98153785Y-110008580D01*
X98153785Y-110008580D02*
X98201404Y-109532390D01*
X98201404Y-109532390D02*
X98153785Y-109580009D01*
X98153785Y-109580009D02*
X98058547Y-109627628D01*
X98058547Y-109627628D02*
X97820452Y-109627628D01*
X97820452Y-109627628D02*
X97725214Y-109580009D01*
X97725214Y-109580009D02*
X97677595Y-109532390D01*
X97677595Y-109532390D02*
X97629976Y-109437152D01*
X97629976Y-109437152D02*
X97629976Y-109199057D01*
X97629976Y-109199057D02*
X97677595Y-109103819D01*
X97677595Y-109103819D02*
X97725214Y-109056200D01*
X97725214Y-109056200D02*
X97820452Y-109008580D01*
X97820452Y-109008580D02*
X98058547Y-109008580D01*
X98058547Y-109008580D02*
X98153785Y-109056200D01*
X98153785Y-109056200D02*
X98201404Y-109103819D01*
X94794262Y-105883419D02*
X95413309Y-105883419D01*
X95413309Y-105883419D02*
X95079976Y-106264371D01*
X95079976Y-106264371D02*
X95222833Y-106264371D01*
X95222833Y-106264371D02*
X95318071Y-106311990D01*
X95318071Y-106311990D02*
X95365690Y-106359609D01*
X95365690Y-106359609D02*
X95413309Y-106454847D01*
X95413309Y-106454847D02*
X95413309Y-106692942D01*
X95413309Y-106692942D02*
X95365690Y-106788180D01*
X95365690Y-106788180D02*
X95318071Y-106835800D01*
X95318071Y-106835800D02*
X95222833Y-106883419D01*
X95222833Y-106883419D02*
X94937119Y-106883419D01*
X94937119Y-106883419D02*
X94841881Y-106835800D01*
X94841881Y-106835800D02*
X94794262Y-106788180D01*
X95841881Y-106788180D02*
X95889500Y-106835800D01*
X95889500Y-106835800D02*
X95841881Y-106883419D01*
X95841881Y-106883419D02*
X95794262Y-106835800D01*
X95794262Y-106835800D02*
X95841881Y-106788180D01*
X95841881Y-106788180D02*
X95841881Y-106883419D01*
X96222833Y-105883419D02*
X96841880Y-105883419D01*
X96841880Y-105883419D02*
X96508547Y-106264371D01*
X96508547Y-106264371D02*
X96651404Y-106264371D01*
X96651404Y-106264371D02*
X96746642Y-106311990D01*
X96746642Y-106311990D02*
X96794261Y-106359609D01*
X96794261Y-106359609D02*
X96841880Y-106454847D01*
X96841880Y-106454847D02*
X96841880Y-106692942D01*
X96841880Y-106692942D02*
X96794261Y-106788180D01*
X96794261Y-106788180D02*
X96746642Y-106835800D01*
X96746642Y-106835800D02*
X96651404Y-106883419D01*
X96651404Y-106883419D02*
X96365690Y-106883419D01*
X96365690Y-106883419D02*
X96270452Y-106835800D01*
X96270452Y-106835800D02*
X96222833Y-106788180D01*
X97127595Y-105883419D02*
X97460928Y-106883419D01*
X97460928Y-106883419D02*
X97794261Y-105883419D01*
X98127595Y-106502466D02*
X98889500Y-106502466D01*
X99365690Y-106216752D02*
X100127595Y-106502466D01*
X100127595Y-106502466D02*
X99365690Y-106788180D01*
X100556166Y-105978657D02*
X100603785Y-105931038D01*
X100603785Y-105931038D02*
X100699023Y-105883419D01*
X100699023Y-105883419D02*
X100937118Y-105883419D01*
X100937118Y-105883419D02*
X101032356Y-105931038D01*
X101032356Y-105931038D02*
X101079975Y-105978657D01*
X101079975Y-105978657D02*
X101127594Y-106073895D01*
X101127594Y-106073895D02*
X101127594Y-106169133D01*
X101127594Y-106169133D02*
X101079975Y-106311990D01*
X101079975Y-106311990D02*
X100508547Y-106883419D01*
X100508547Y-106883419D02*
X101127594Y-106883419D01*
X101984737Y-106216752D02*
X101984737Y-106883419D01*
X101746642Y-105835800D02*
X101508547Y-106550085D01*
X101508547Y-106550085D02*
X102127594Y-106550085D01*
X102365690Y-105883419D02*
X102699023Y-106883419D01*
X102699023Y-106883419D02*
X103032356Y-105883419D01*
X97648595Y-86587419D02*
X97648595Y-87396942D01*
X97648595Y-87396942D02*
X97696214Y-87492180D01*
X97696214Y-87492180D02*
X97743833Y-87539800D01*
X97743833Y-87539800D02*
X97839071Y-87587419D01*
X97839071Y-87587419D02*
X98029547Y-87587419D01*
X98029547Y-87587419D02*
X98124785Y-87539800D01*
X98124785Y-87539800D02*
X98172404Y-87492180D01*
X98172404Y-87492180D02*
X98220023Y-87396942D01*
X98220023Y-87396942D02*
X98220023Y-86587419D01*
X99124785Y-86920752D02*
X99124785Y-87587419D01*
X98886690Y-86539800D02*
X98648595Y-87254085D01*
X98648595Y-87254085D02*
X99267642Y-87254085D01*
X93912881Y-89722657D02*
X93960500Y-89675038D01*
X93960500Y-89675038D02*
X94055738Y-89627419D01*
X94055738Y-89627419D02*
X94293833Y-89627419D01*
X94293833Y-89627419D02*
X94389071Y-89675038D01*
X94389071Y-89675038D02*
X94436690Y-89722657D01*
X94436690Y-89722657D02*
X94484309Y-89817895D01*
X94484309Y-89817895D02*
X94484309Y-89913133D01*
X94484309Y-89913133D02*
X94436690Y-90055990D01*
X94436690Y-90055990D02*
X93865262Y-90627419D01*
X93865262Y-90627419D02*
X94484309Y-90627419D01*
X95341452Y-89960752D02*
X95341452Y-90627419D01*
X95103357Y-89579800D02*
X94865262Y-90294085D01*
X94865262Y-90294085D02*
X95484309Y-90294085D01*
X95722405Y-89627419D02*
X96055738Y-90627419D01*
X96055738Y-90627419D02*
X96389071Y-89627419D01*
X96722405Y-90246466D02*
X97484310Y-90246466D01*
X97960500Y-89960752D02*
X98722405Y-90246466D01*
X98722405Y-90246466D02*
X97960500Y-90532180D01*
X99103357Y-89627419D02*
X99722404Y-89627419D01*
X99722404Y-89627419D02*
X99389071Y-90008371D01*
X99389071Y-90008371D02*
X99531928Y-90008371D01*
X99531928Y-90008371D02*
X99627166Y-90055990D01*
X99627166Y-90055990D02*
X99674785Y-90103609D01*
X99674785Y-90103609D02*
X99722404Y-90198847D01*
X99722404Y-90198847D02*
X99722404Y-90436942D01*
X99722404Y-90436942D02*
X99674785Y-90532180D01*
X99674785Y-90532180D02*
X99627166Y-90579800D01*
X99627166Y-90579800D02*
X99531928Y-90627419D01*
X99531928Y-90627419D02*
X99246214Y-90627419D01*
X99246214Y-90627419D02*
X99150976Y-90579800D01*
X99150976Y-90579800D02*
X99103357Y-90532180D01*
X100150976Y-90532180D02*
X100198595Y-90579800D01*
X100198595Y-90579800D02*
X100150976Y-90627419D01*
X100150976Y-90627419D02*
X100103357Y-90579800D01*
X100103357Y-90579800D02*
X100150976Y-90532180D01*
X100150976Y-90532180D02*
X100150976Y-90627419D01*
X100531928Y-89627419D02*
X101150975Y-89627419D01*
X101150975Y-89627419D02*
X100817642Y-90008371D01*
X100817642Y-90008371D02*
X100960499Y-90008371D01*
X100960499Y-90008371D02*
X101055737Y-90055990D01*
X101055737Y-90055990D02*
X101103356Y-90103609D01*
X101103356Y-90103609D02*
X101150975Y-90198847D01*
X101150975Y-90198847D02*
X101150975Y-90436942D01*
X101150975Y-90436942D02*
X101103356Y-90532180D01*
X101103356Y-90532180D02*
X101055737Y-90579800D01*
X101055737Y-90579800D02*
X100960499Y-90627419D01*
X100960499Y-90627419D02*
X100674785Y-90627419D01*
X100674785Y-90627419D02*
X100579547Y-90579800D01*
X100579547Y-90579800D02*
X100531928Y-90532180D01*
X101436690Y-89627419D02*
X101770023Y-90627419D01*
X101770023Y-90627419D02*
X102103356Y-89627419D01*
X163772095Y-131037419D02*
X163772095Y-131846942D01*
X163772095Y-131846942D02*
X163819714Y-131942180D01*
X163819714Y-131942180D02*
X163867333Y-131989800D01*
X163867333Y-131989800D02*
X163962571Y-132037419D01*
X163962571Y-132037419D02*
X164153047Y-132037419D01*
X164153047Y-132037419D02*
X164248285Y-131989800D01*
X164248285Y-131989800D02*
X164295904Y-131942180D01*
X164295904Y-131942180D02*
X164343523Y-131846942D01*
X164343523Y-131846942D02*
X164343523Y-131037419D01*
X164724476Y-131037419D02*
X165343523Y-131037419D01*
X165343523Y-131037419D02*
X165010190Y-131418371D01*
X165010190Y-131418371D02*
X165153047Y-131418371D01*
X165153047Y-131418371D02*
X165248285Y-131465990D01*
X165248285Y-131465990D02*
X165295904Y-131513609D01*
X165295904Y-131513609D02*
X165343523Y-131608847D01*
X165343523Y-131608847D02*
X165343523Y-131846942D01*
X165343523Y-131846942D02*
X165295904Y-131942180D01*
X165295904Y-131942180D02*
X165248285Y-131989800D01*
X165248285Y-131989800D02*
X165153047Y-132037419D01*
X165153047Y-132037419D02*
X164867333Y-132037419D01*
X164867333Y-132037419D02*
X164772095Y-131989800D01*
X164772095Y-131989800D02*
X164724476Y-131942180D01*
X160036381Y-134172657D02*
X160084000Y-134125038D01*
X160084000Y-134125038D02*
X160179238Y-134077419D01*
X160179238Y-134077419D02*
X160417333Y-134077419D01*
X160417333Y-134077419D02*
X160512571Y-134125038D01*
X160512571Y-134125038D02*
X160560190Y-134172657D01*
X160560190Y-134172657D02*
X160607809Y-134267895D01*
X160607809Y-134267895D02*
X160607809Y-134363133D01*
X160607809Y-134363133D02*
X160560190Y-134505990D01*
X160560190Y-134505990D02*
X159988762Y-135077419D01*
X159988762Y-135077419D02*
X160607809Y-135077419D01*
X161464952Y-134410752D02*
X161464952Y-135077419D01*
X161226857Y-134029800D02*
X160988762Y-134744085D01*
X160988762Y-134744085D02*
X161607809Y-134744085D01*
X161845905Y-134077419D02*
X162179238Y-135077419D01*
X162179238Y-135077419D02*
X162512571Y-134077419D01*
X162845905Y-134696466D02*
X163607810Y-134696466D01*
X164084000Y-134410752D02*
X164845905Y-134696466D01*
X164845905Y-134696466D02*
X164084000Y-134982180D01*
X165226857Y-134077419D02*
X165845904Y-134077419D01*
X165845904Y-134077419D02*
X165512571Y-134458371D01*
X165512571Y-134458371D02*
X165655428Y-134458371D01*
X165655428Y-134458371D02*
X165750666Y-134505990D01*
X165750666Y-134505990D02*
X165798285Y-134553609D01*
X165798285Y-134553609D02*
X165845904Y-134648847D01*
X165845904Y-134648847D02*
X165845904Y-134886942D01*
X165845904Y-134886942D02*
X165798285Y-134982180D01*
X165798285Y-134982180D02*
X165750666Y-135029800D01*
X165750666Y-135029800D02*
X165655428Y-135077419D01*
X165655428Y-135077419D02*
X165369714Y-135077419D01*
X165369714Y-135077419D02*
X165274476Y-135029800D01*
X165274476Y-135029800D02*
X165226857Y-134982180D01*
X166274476Y-134982180D02*
X166322095Y-135029800D01*
X166322095Y-135029800D02*
X166274476Y-135077419D01*
X166274476Y-135077419D02*
X166226857Y-135029800D01*
X166226857Y-135029800D02*
X166274476Y-134982180D01*
X166274476Y-134982180D02*
X166274476Y-135077419D01*
X166655428Y-134077419D02*
X167274475Y-134077419D01*
X167274475Y-134077419D02*
X166941142Y-134458371D01*
X166941142Y-134458371D02*
X167083999Y-134458371D01*
X167083999Y-134458371D02*
X167179237Y-134505990D01*
X167179237Y-134505990D02*
X167226856Y-134553609D01*
X167226856Y-134553609D02*
X167274475Y-134648847D01*
X167274475Y-134648847D02*
X167274475Y-134886942D01*
X167274475Y-134886942D02*
X167226856Y-134982180D01*
X167226856Y-134982180D02*
X167179237Y-135029800D01*
X167179237Y-135029800D02*
X167083999Y-135077419D01*
X167083999Y-135077419D02*
X166798285Y-135077419D01*
X166798285Y-135077419D02*
X166703047Y-135029800D01*
X166703047Y-135029800D02*
X166655428Y-134982180D01*
X167560190Y-134077419D02*
X167893523Y-135077419D01*
X167893523Y-135077419D02*
X168226856Y-134077419D01*
D11*
X179622667Y-146882318D02*
X179622667Y-147789461D01*
X179622667Y-147789461D02*
X179562190Y-147970889D01*
X179562190Y-147970889D02*
X179441238Y-148091842D01*
X179441238Y-148091842D02*
X179259809Y-148152318D01*
X179259809Y-148152318D02*
X179138857Y-148152318D01*
X180892667Y-148152318D02*
X180166952Y-148152318D01*
X180529809Y-148152318D02*
X180529809Y-146882318D01*
X180529809Y-146882318D02*
X180408857Y-147063746D01*
X180408857Y-147063746D02*
X180287905Y-147184699D01*
X180287905Y-147184699D02*
X180166952Y-147245175D01*
X166905905Y-146882318D02*
X166905905Y-147789461D01*
X166905905Y-147789461D02*
X166845428Y-147970889D01*
X166845428Y-147970889D02*
X166724476Y-148091842D01*
X166724476Y-148091842D02*
X166543047Y-148152318D01*
X166543047Y-148152318D02*
X166422095Y-148152318D01*
X168175905Y-148152318D02*
X167450190Y-148152318D01*
X167813047Y-148152318D02*
X167813047Y-146882318D01*
X167813047Y-146882318D02*
X167692095Y-147063746D01*
X167692095Y-147063746D02*
X167571143Y-147184699D01*
X167571143Y-147184699D02*
X167450190Y-147245175D01*
X169385429Y-148152318D02*
X168659714Y-148152318D01*
X169022571Y-148152318D02*
X169022571Y-146882318D01*
X169022571Y-146882318D02*
X168901619Y-147063746D01*
X168901619Y-147063746D02*
X168780667Y-147184699D01*
X168780667Y-147184699D02*
X168659714Y-147245175D01*
X146971905Y-64804318D02*
X146971905Y-65711461D01*
X146971905Y-65711461D02*
X146911428Y-65892889D01*
X146911428Y-65892889D02*
X146790476Y-66013842D01*
X146790476Y-66013842D02*
X146609047Y-66074318D01*
X146609047Y-66074318D02*
X146488095Y-66074318D01*
X148241905Y-66074318D02*
X147516190Y-66074318D01*
X147879047Y-66074318D02*
X147879047Y-64804318D01*
X147879047Y-64804318D02*
X147758095Y-64985746D01*
X147758095Y-64985746D02*
X147637143Y-65106699D01*
X147637143Y-65106699D02*
X147516190Y-65167175D01*
X148725714Y-64925270D02*
X148786190Y-64864794D01*
X148786190Y-64864794D02*
X148907143Y-64804318D01*
X148907143Y-64804318D02*
X149209524Y-64804318D01*
X149209524Y-64804318D02*
X149330476Y-64864794D01*
X149330476Y-64864794D02*
X149390952Y-64925270D01*
X149390952Y-64925270D02*
X149451429Y-65046222D01*
X149451429Y-65046222D02*
X149451429Y-65167175D01*
X149451429Y-65167175D02*
X149390952Y-65348603D01*
X149390952Y-65348603D02*
X148665238Y-66074318D01*
X148665238Y-66074318D02*
X149451429Y-66074318D01*
D10*
X132191904Y-106492580D02*
X132191904Y-105683057D01*
X132191904Y-105683057D02*
X132144285Y-105587819D01*
X132144285Y-105587819D02*
X132096666Y-105540200D01*
X132096666Y-105540200D02*
X132001428Y-105492580D01*
X132001428Y-105492580D02*
X131810952Y-105492580D01*
X131810952Y-105492580D02*
X131715714Y-105540200D01*
X131715714Y-105540200D02*
X131668095Y-105587819D01*
X131668095Y-105587819D02*
X131620476Y-105683057D01*
X131620476Y-105683057D02*
X131620476Y-106492580D01*
X130620476Y-105492580D02*
X131191904Y-105492580D01*
X130906190Y-105492580D02*
X130906190Y-106492580D01*
X130906190Y-106492580D02*
X131001428Y-106349723D01*
X131001428Y-106349723D02*
X131096666Y-106254485D01*
X131096666Y-106254485D02*
X131191904Y-106206866D01*
D13*
X123047255Y-96220835D02*
X123047255Y-96970835D01*
X122547255Y-96970835D02*
X122404398Y-96970835D01*
X122404398Y-96970835D02*
X122332969Y-96935121D01*
X122332969Y-96935121D02*
X122261541Y-96863692D01*
X122261541Y-96863692D02*
X122225826Y-96720835D01*
X122225826Y-96720835D02*
X122225826Y-96470835D01*
X122225826Y-96470835D02*
X122261541Y-96327978D01*
X122261541Y-96327978D02*
X122332969Y-96256550D01*
X122332969Y-96256550D02*
X122404398Y-96220835D01*
X122404398Y-96220835D02*
X122547255Y-96220835D01*
X122547255Y-96220835D02*
X122618684Y-96256550D01*
X122618684Y-96256550D02*
X122690112Y-96327978D01*
X122690112Y-96327978D02*
X122725826Y-96470835D01*
X122725826Y-96470835D02*
X122725826Y-96720835D01*
X122725826Y-96720835D02*
X122690112Y-96863692D01*
X122690112Y-96863692D02*
X122618684Y-96935121D01*
X122618684Y-96935121D02*
X122547255Y-96970835D01*
X121940112Y-96899407D02*
X121904398Y-96935121D01*
X121904398Y-96935121D02*
X121832970Y-96970835D01*
X121832970Y-96970835D02*
X121654398Y-96970835D01*
X121654398Y-96970835D02*
X121582970Y-96935121D01*
X121582970Y-96935121D02*
X121547255Y-96899407D01*
X121547255Y-96899407D02*
X121511541Y-96827978D01*
X121511541Y-96827978D02*
X121511541Y-96756550D01*
X121511541Y-96756550D02*
X121547255Y-96649407D01*
X121547255Y-96649407D02*
X121975827Y-96220835D01*
X121975827Y-96220835D02*
X121511541Y-96220835D01*
X141312744Y-114000835D02*
X141312744Y-114750835D01*
X140812744Y-114750835D02*
X140669887Y-114750835D01*
X140669887Y-114750835D02*
X140598458Y-114715121D01*
X140598458Y-114715121D02*
X140527030Y-114643692D01*
X140527030Y-114643692D02*
X140491315Y-114500835D01*
X140491315Y-114500835D02*
X140491315Y-114250835D01*
X140491315Y-114250835D02*
X140527030Y-114107978D01*
X140527030Y-114107978D02*
X140598458Y-114036550D01*
X140598458Y-114036550D02*
X140669887Y-114000835D01*
X140669887Y-114000835D02*
X140812744Y-114000835D01*
X140812744Y-114000835D02*
X140884173Y-114036550D01*
X140884173Y-114036550D02*
X140955601Y-114107978D01*
X140955601Y-114107978D02*
X140991315Y-114250835D01*
X140991315Y-114250835D02*
X140991315Y-114500835D01*
X140991315Y-114500835D02*
X140955601Y-114643692D01*
X140955601Y-114643692D02*
X140884173Y-114715121D01*
X140884173Y-114715121D02*
X140812744Y-114750835D01*
X140241316Y-114750835D02*
X139777030Y-114750835D01*
X139777030Y-114750835D02*
X140027030Y-114465121D01*
X140027030Y-114465121D02*
X139919887Y-114465121D01*
X139919887Y-114465121D02*
X139848459Y-114429407D01*
X139848459Y-114429407D02*
X139812744Y-114393692D01*
X139812744Y-114393692D02*
X139777030Y-114322264D01*
X139777030Y-114322264D02*
X139777030Y-114143692D01*
X139777030Y-114143692D02*
X139812744Y-114072264D01*
X139812744Y-114072264D02*
X139848459Y-114036550D01*
X139848459Y-114036550D02*
X139919887Y-114000835D01*
X139919887Y-114000835D02*
X140134173Y-114000835D01*
X140134173Y-114000835D02*
X140205601Y-114036550D01*
X140205601Y-114036550D02*
X140241316Y-114072264D01*
X139491315Y-114679407D02*
X139455601Y-114715121D01*
X139455601Y-114715121D02*
X139384173Y-114750835D01*
X139384173Y-114750835D02*
X139205601Y-114750835D01*
X139205601Y-114750835D02*
X139134173Y-114715121D01*
X139134173Y-114715121D02*
X139098458Y-114679407D01*
X139098458Y-114679407D02*
X139062744Y-114607978D01*
X139062744Y-114607978D02*
X139062744Y-114536550D01*
X139062744Y-114536550D02*
X139098458Y-114429407D01*
X139098458Y-114429407D02*
X139527030Y-114000835D01*
X139527030Y-114000835D02*
X139062744Y-114000835D01*
X123761541Y-108920835D02*
X123761541Y-109670835D01*
X123261541Y-109670835D02*
X123118684Y-109670835D01*
X123118684Y-109670835D02*
X123047255Y-109635121D01*
X123047255Y-109635121D02*
X122975827Y-109563692D01*
X122975827Y-109563692D02*
X122940112Y-109420835D01*
X122940112Y-109420835D02*
X122940112Y-109170835D01*
X122940112Y-109170835D02*
X122975827Y-109027978D01*
X122975827Y-109027978D02*
X123047255Y-108956550D01*
X123047255Y-108956550D02*
X123118684Y-108920835D01*
X123118684Y-108920835D02*
X123261541Y-108920835D01*
X123261541Y-108920835D02*
X123332970Y-108956550D01*
X123332970Y-108956550D02*
X123404398Y-109027978D01*
X123404398Y-109027978D02*
X123440112Y-109170835D01*
X123440112Y-109170835D02*
X123440112Y-109420835D01*
X123440112Y-109420835D02*
X123404398Y-109563692D01*
X123404398Y-109563692D02*
X123332970Y-109635121D01*
X123332970Y-109635121D02*
X123261541Y-109670835D01*
X122225827Y-108920835D02*
X122654398Y-108920835D01*
X122440113Y-108920835D02*
X122440113Y-109670835D01*
X122440113Y-109670835D02*
X122511541Y-109563692D01*
X122511541Y-109563692D02*
X122582970Y-109492264D01*
X122582970Y-109492264D02*
X122654398Y-109456550D01*
X121547255Y-109670835D02*
X121904398Y-109670835D01*
X121904398Y-109670835D02*
X121940112Y-109313692D01*
X121940112Y-109313692D02*
X121904398Y-109349407D01*
X121904398Y-109349407D02*
X121832970Y-109385121D01*
X121832970Y-109385121D02*
X121654398Y-109385121D01*
X121654398Y-109385121D02*
X121582970Y-109349407D01*
X121582970Y-109349407D02*
X121547255Y-109313692D01*
X121547255Y-109313692D02*
X121511541Y-109242264D01*
X121511541Y-109242264D02*
X121511541Y-109063692D01*
X121511541Y-109063692D02*
X121547255Y-108992264D01*
X121547255Y-108992264D02*
X121582970Y-108956550D01*
X121582970Y-108956550D02*
X121654398Y-108920835D01*
X121654398Y-108920835D02*
X121832970Y-108920835D01*
X121832970Y-108920835D02*
X121904398Y-108956550D01*
X121904398Y-108956550D02*
X121940112Y-108992264D01*
X140955601Y-96970835D02*
X141312744Y-96970835D01*
X141312744Y-96970835D02*
X141348458Y-96613692D01*
X141348458Y-96613692D02*
X141312744Y-96649407D01*
X141312744Y-96649407D02*
X141241316Y-96685121D01*
X141241316Y-96685121D02*
X141062744Y-96685121D01*
X141062744Y-96685121D02*
X140991316Y-96649407D01*
X140991316Y-96649407D02*
X140955601Y-96613692D01*
X140955601Y-96613692D02*
X140919887Y-96542264D01*
X140919887Y-96542264D02*
X140919887Y-96363692D01*
X140919887Y-96363692D02*
X140955601Y-96292264D01*
X140955601Y-96292264D02*
X140991316Y-96256550D01*
X140991316Y-96256550D02*
X141062744Y-96220835D01*
X141062744Y-96220835D02*
X141241316Y-96220835D01*
X141241316Y-96220835D02*
X141312744Y-96256550D01*
X141312744Y-96256550D02*
X141348458Y-96292264D01*
X140705601Y-96970835D02*
X140455601Y-96220835D01*
X140455601Y-96220835D02*
X140205601Y-96970835D01*
X140919887Y-99475121D02*
X140991316Y-99510835D01*
X140991316Y-99510835D02*
X141098458Y-99510835D01*
X141098458Y-99510835D02*
X141205601Y-99475121D01*
X141205601Y-99475121D02*
X141277030Y-99403692D01*
X141277030Y-99403692D02*
X141312744Y-99332264D01*
X141312744Y-99332264D02*
X141348458Y-99189407D01*
X141348458Y-99189407D02*
X141348458Y-99082264D01*
X141348458Y-99082264D02*
X141312744Y-98939407D01*
X141312744Y-98939407D02*
X141277030Y-98867978D01*
X141277030Y-98867978D02*
X141205601Y-98796550D01*
X141205601Y-98796550D02*
X141098458Y-98760835D01*
X141098458Y-98760835D02*
X141027030Y-98760835D01*
X141027030Y-98760835D02*
X140919887Y-98796550D01*
X140919887Y-98796550D02*
X140884173Y-98832264D01*
X140884173Y-98832264D02*
X140884173Y-99082264D01*
X140884173Y-99082264D02*
X141027030Y-99082264D01*
X140562744Y-98760835D02*
X140562744Y-99510835D01*
X140562744Y-99510835D02*
X140134173Y-98760835D01*
X140134173Y-98760835D02*
X140134173Y-99510835D01*
X139777030Y-98760835D02*
X139777030Y-99510835D01*
X139777030Y-99510835D02*
X139598459Y-99510835D01*
X139598459Y-99510835D02*
X139491316Y-99475121D01*
X139491316Y-99475121D02*
X139419887Y-99403692D01*
X139419887Y-99403692D02*
X139384173Y-99332264D01*
X139384173Y-99332264D02*
X139348459Y-99189407D01*
X139348459Y-99189407D02*
X139348459Y-99082264D01*
X139348459Y-99082264D02*
X139384173Y-98939407D01*
X139384173Y-98939407D02*
X139419887Y-98867978D01*
X139419887Y-98867978D02*
X139491316Y-98796550D01*
X139491316Y-98796550D02*
X139598459Y-98760835D01*
X139598459Y-98760835D02*
X139777030Y-98760835D01*
X123082969Y-117255121D02*
X123154398Y-117290835D01*
X123154398Y-117290835D02*
X123261540Y-117290835D01*
X123261540Y-117290835D02*
X123368683Y-117255121D01*
X123368683Y-117255121D02*
X123440112Y-117183692D01*
X123440112Y-117183692D02*
X123475826Y-117112264D01*
X123475826Y-117112264D02*
X123511540Y-116969407D01*
X123511540Y-116969407D02*
X123511540Y-116862264D01*
X123511540Y-116862264D02*
X123475826Y-116719407D01*
X123475826Y-116719407D02*
X123440112Y-116647978D01*
X123440112Y-116647978D02*
X123368683Y-116576550D01*
X123368683Y-116576550D02*
X123261540Y-116540835D01*
X123261540Y-116540835D02*
X123190112Y-116540835D01*
X123190112Y-116540835D02*
X123082969Y-116576550D01*
X123082969Y-116576550D02*
X123047255Y-116612264D01*
X123047255Y-116612264D02*
X123047255Y-116862264D01*
X123047255Y-116862264D02*
X123190112Y-116862264D01*
X122725826Y-116540835D02*
X122725826Y-117290835D01*
X122725826Y-117290835D02*
X122297255Y-116540835D01*
X122297255Y-116540835D02*
X122297255Y-117290835D01*
X121940112Y-116540835D02*
X121940112Y-117290835D01*
X121940112Y-117290835D02*
X121761541Y-117290835D01*
X121761541Y-117290835D02*
X121654398Y-117255121D01*
X121654398Y-117255121D02*
X121582969Y-117183692D01*
X121582969Y-117183692D02*
X121547255Y-117112264D01*
X121547255Y-117112264D02*
X121511541Y-116969407D01*
X121511541Y-116969407D02*
X121511541Y-116862264D01*
X121511541Y-116862264D02*
X121547255Y-116719407D01*
X121547255Y-116719407D02*
X121582969Y-116647978D01*
X121582969Y-116647978D02*
X121654398Y-116576550D01*
X121654398Y-116576550D02*
X121761541Y-116540835D01*
X121761541Y-116540835D02*
X121940112Y-116540835D01*
X123761541Y-101300835D02*
X123761541Y-102050835D01*
X123261541Y-102050835D02*
X123118684Y-102050835D01*
X123118684Y-102050835D02*
X123047255Y-102015121D01*
X123047255Y-102015121D02*
X122975827Y-101943692D01*
X122975827Y-101943692D02*
X122940112Y-101800835D01*
X122940112Y-101800835D02*
X122940112Y-101550835D01*
X122940112Y-101550835D02*
X122975827Y-101407978D01*
X122975827Y-101407978D02*
X123047255Y-101336550D01*
X123047255Y-101336550D02*
X123118684Y-101300835D01*
X123118684Y-101300835D02*
X123261541Y-101300835D01*
X123261541Y-101300835D02*
X123332970Y-101336550D01*
X123332970Y-101336550D02*
X123404398Y-101407978D01*
X123404398Y-101407978D02*
X123440112Y-101550835D01*
X123440112Y-101550835D02*
X123440112Y-101800835D01*
X123440112Y-101800835D02*
X123404398Y-101943692D01*
X123404398Y-101943692D02*
X123332970Y-102015121D01*
X123332970Y-102015121D02*
X123261541Y-102050835D01*
X122690113Y-102050835D02*
X122225827Y-102050835D01*
X122225827Y-102050835D02*
X122475827Y-101765121D01*
X122475827Y-101765121D02*
X122368684Y-101765121D01*
X122368684Y-101765121D02*
X122297256Y-101729407D01*
X122297256Y-101729407D02*
X122261541Y-101693692D01*
X122261541Y-101693692D02*
X122225827Y-101622264D01*
X122225827Y-101622264D02*
X122225827Y-101443692D01*
X122225827Y-101443692D02*
X122261541Y-101372264D01*
X122261541Y-101372264D02*
X122297256Y-101336550D01*
X122297256Y-101336550D02*
X122368684Y-101300835D01*
X122368684Y-101300835D02*
X122582970Y-101300835D01*
X122582970Y-101300835D02*
X122654398Y-101336550D01*
X122654398Y-101336550D02*
X122690113Y-101372264D01*
X121547255Y-102050835D02*
X121904398Y-102050835D01*
X121904398Y-102050835D02*
X121940112Y-101693692D01*
X121940112Y-101693692D02*
X121904398Y-101729407D01*
X121904398Y-101729407D02*
X121832970Y-101765121D01*
X121832970Y-101765121D02*
X121654398Y-101765121D01*
X121654398Y-101765121D02*
X121582970Y-101729407D01*
X121582970Y-101729407D02*
X121547255Y-101693692D01*
X121547255Y-101693692D02*
X121511541Y-101622264D01*
X121511541Y-101622264D02*
X121511541Y-101443692D01*
X121511541Y-101443692D02*
X121547255Y-101372264D01*
X121547255Y-101372264D02*
X121582970Y-101336550D01*
X121582970Y-101336550D02*
X121654398Y-101300835D01*
X121654398Y-101300835D02*
X121832970Y-101300835D01*
X121832970Y-101300835D02*
X121904398Y-101336550D01*
X121904398Y-101336550D02*
X121940112Y-101372264D01*
D10*
X134501429Y-85942580D02*
X134834762Y-86418771D01*
X135072857Y-85942580D02*
X135072857Y-86942580D01*
X135072857Y-86942580D02*
X134691905Y-86942580D01*
X134691905Y-86942580D02*
X134596667Y-86894961D01*
X134596667Y-86894961D02*
X134549048Y-86847342D01*
X134549048Y-86847342D02*
X134501429Y-86752104D01*
X134501429Y-86752104D02*
X134501429Y-86609247D01*
X134501429Y-86609247D02*
X134549048Y-86514009D01*
X134549048Y-86514009D02*
X134596667Y-86466390D01*
X134596667Y-86466390D02*
X134691905Y-86418771D01*
X134691905Y-86418771D02*
X135072857Y-86418771D01*
X133787143Y-86942580D02*
X133787143Y-86228295D01*
X133787143Y-86228295D02*
X133834762Y-86085438D01*
X133834762Y-86085438D02*
X133930000Y-85990200D01*
X133930000Y-85990200D02*
X134072857Y-85942580D01*
X134072857Y-85942580D02*
X134168095Y-85942580D01*
X132882381Y-86609247D02*
X132882381Y-85942580D01*
X133120476Y-86990200D02*
X133358571Y-86275914D01*
X133358571Y-86275914D02*
X132739524Y-86275914D01*
X131882381Y-86942580D02*
X132358571Y-86942580D01*
X132358571Y-86942580D02*
X132406190Y-86466390D01*
X132406190Y-86466390D02*
X132358571Y-86514009D01*
X132358571Y-86514009D02*
X132263333Y-86561628D01*
X132263333Y-86561628D02*
X132025238Y-86561628D01*
X132025238Y-86561628D02*
X131930000Y-86514009D01*
X131930000Y-86514009D02*
X131882381Y-86466390D01*
X131882381Y-86466390D02*
X131834762Y-86371152D01*
X131834762Y-86371152D02*
X131834762Y-86133057D01*
X131834762Y-86133057D02*
X131882381Y-86037819D01*
X131882381Y-86037819D02*
X131930000Y-85990200D01*
X131930000Y-85990200D02*
X132025238Y-85942580D01*
X132025238Y-85942580D02*
X132263333Y-85942580D01*
X132263333Y-85942580D02*
X132358571Y-85990200D01*
X132358571Y-85990200D02*
X132406190Y-86037819D01*
X130358571Y-86942580D02*
X130358571Y-86228295D01*
X130358571Y-86228295D02*
X130406190Y-86085438D01*
X130406190Y-86085438D02*
X130501428Y-85990200D01*
X130501428Y-85990200D02*
X130644285Y-85942580D01*
X130644285Y-85942580D02*
X130739523Y-85942580D01*
X129453809Y-85942580D02*
X129453809Y-86466390D01*
X129453809Y-86466390D02*
X129501428Y-86561628D01*
X129501428Y-86561628D02*
X129596666Y-86609247D01*
X129596666Y-86609247D02*
X129787142Y-86609247D01*
X129787142Y-86609247D02*
X129882380Y-86561628D01*
X129453809Y-85990200D02*
X129549047Y-85942580D01*
X129549047Y-85942580D02*
X129787142Y-85942580D01*
X129787142Y-85942580D02*
X129882380Y-85990200D01*
X129882380Y-85990200D02*
X129929999Y-86085438D01*
X129929999Y-86085438D02*
X129929999Y-86180676D01*
X129929999Y-86180676D02*
X129882380Y-86275914D01*
X129882380Y-86275914D02*
X129787142Y-86323533D01*
X129787142Y-86323533D02*
X129549047Y-86323533D01*
X129549047Y-86323533D02*
X129453809Y-86371152D01*
X128549047Y-85990200D02*
X128644285Y-85942580D01*
X128644285Y-85942580D02*
X128834761Y-85942580D01*
X128834761Y-85942580D02*
X128929999Y-85990200D01*
X128929999Y-85990200D02*
X128977618Y-86037819D01*
X128977618Y-86037819D02*
X129025237Y-86133057D01*
X129025237Y-86133057D02*
X129025237Y-86418771D01*
X129025237Y-86418771D02*
X128977618Y-86514009D01*
X128977618Y-86514009D02*
X128929999Y-86561628D01*
X128929999Y-86561628D02*
X128834761Y-86609247D01*
X128834761Y-86609247D02*
X128644285Y-86609247D01*
X128644285Y-86609247D02*
X128549047Y-86561628D01*
X128120475Y-85942580D02*
X128120475Y-86942580D01*
X128025237Y-86323533D02*
X127739523Y-85942580D01*
X127739523Y-86609247D02*
X128120475Y-86228295D01*
D13*
X123761541Y-111460835D02*
X123761541Y-112210835D01*
X123261541Y-112210835D02*
X123118684Y-112210835D01*
X123118684Y-112210835D02*
X123047255Y-112175121D01*
X123047255Y-112175121D02*
X122975827Y-112103692D01*
X122975827Y-112103692D02*
X122940112Y-111960835D01*
X122940112Y-111960835D02*
X122940112Y-111710835D01*
X122940112Y-111710835D02*
X122975827Y-111567978D01*
X122975827Y-111567978D02*
X123047255Y-111496550D01*
X123047255Y-111496550D02*
X123118684Y-111460835D01*
X123118684Y-111460835D02*
X123261541Y-111460835D01*
X123261541Y-111460835D02*
X123332970Y-111496550D01*
X123332970Y-111496550D02*
X123404398Y-111567978D01*
X123404398Y-111567978D02*
X123440112Y-111710835D01*
X123440112Y-111710835D02*
X123440112Y-111960835D01*
X123440112Y-111960835D02*
X123404398Y-112103692D01*
X123404398Y-112103692D02*
X123332970Y-112175121D01*
X123332970Y-112175121D02*
X123261541Y-112210835D01*
X122690113Y-112210835D02*
X122225827Y-112210835D01*
X122225827Y-112210835D02*
X122475827Y-111925121D01*
X122475827Y-111925121D02*
X122368684Y-111925121D01*
X122368684Y-111925121D02*
X122297256Y-111889407D01*
X122297256Y-111889407D02*
X122261541Y-111853692D01*
X122261541Y-111853692D02*
X122225827Y-111782264D01*
X122225827Y-111782264D02*
X122225827Y-111603692D01*
X122225827Y-111603692D02*
X122261541Y-111532264D01*
X122261541Y-111532264D02*
X122297256Y-111496550D01*
X122297256Y-111496550D02*
X122368684Y-111460835D01*
X122368684Y-111460835D02*
X122582970Y-111460835D01*
X122582970Y-111460835D02*
X122654398Y-111496550D01*
X122654398Y-111496550D02*
X122690113Y-111532264D01*
X121582970Y-112210835D02*
X121725827Y-112210835D01*
X121725827Y-112210835D02*
X121797255Y-112175121D01*
X121797255Y-112175121D02*
X121832970Y-112139407D01*
X121832970Y-112139407D02*
X121904398Y-112032264D01*
X121904398Y-112032264D02*
X121940112Y-111889407D01*
X121940112Y-111889407D02*
X121940112Y-111603692D01*
X121940112Y-111603692D02*
X121904398Y-111532264D01*
X121904398Y-111532264D02*
X121868684Y-111496550D01*
X121868684Y-111496550D02*
X121797255Y-111460835D01*
X121797255Y-111460835D02*
X121654398Y-111460835D01*
X121654398Y-111460835D02*
X121582970Y-111496550D01*
X121582970Y-111496550D02*
X121547255Y-111532264D01*
X121547255Y-111532264D02*
X121511541Y-111603692D01*
X121511541Y-111603692D02*
X121511541Y-111782264D01*
X121511541Y-111782264D02*
X121547255Y-111853692D01*
X121547255Y-111853692D02*
X121582970Y-111889407D01*
X121582970Y-111889407D02*
X121654398Y-111925121D01*
X121654398Y-111925121D02*
X121797255Y-111925121D01*
X121797255Y-111925121D02*
X121868684Y-111889407D01*
X121868684Y-111889407D02*
X121904398Y-111853692D01*
X121904398Y-111853692D02*
X121940112Y-111782264D01*
X123082969Y-94395121D02*
X123154398Y-94430835D01*
X123154398Y-94430835D02*
X123261540Y-94430835D01*
X123261540Y-94430835D02*
X123368683Y-94395121D01*
X123368683Y-94395121D02*
X123440112Y-94323692D01*
X123440112Y-94323692D02*
X123475826Y-94252264D01*
X123475826Y-94252264D02*
X123511540Y-94109407D01*
X123511540Y-94109407D02*
X123511540Y-94002264D01*
X123511540Y-94002264D02*
X123475826Y-93859407D01*
X123475826Y-93859407D02*
X123440112Y-93787978D01*
X123440112Y-93787978D02*
X123368683Y-93716550D01*
X123368683Y-93716550D02*
X123261540Y-93680835D01*
X123261540Y-93680835D02*
X123190112Y-93680835D01*
X123190112Y-93680835D02*
X123082969Y-93716550D01*
X123082969Y-93716550D02*
X123047255Y-93752264D01*
X123047255Y-93752264D02*
X123047255Y-94002264D01*
X123047255Y-94002264D02*
X123190112Y-94002264D01*
X122725826Y-93680835D02*
X122725826Y-94430835D01*
X122725826Y-94430835D02*
X122297255Y-93680835D01*
X122297255Y-93680835D02*
X122297255Y-94430835D01*
X121940112Y-93680835D02*
X121940112Y-94430835D01*
X121940112Y-94430835D02*
X121761541Y-94430835D01*
X121761541Y-94430835D02*
X121654398Y-94395121D01*
X121654398Y-94395121D02*
X121582969Y-94323692D01*
X121582969Y-94323692D02*
X121547255Y-94252264D01*
X121547255Y-94252264D02*
X121511541Y-94109407D01*
X121511541Y-94109407D02*
X121511541Y-94002264D01*
X121511541Y-94002264D02*
X121547255Y-93859407D01*
X121547255Y-93859407D02*
X121582969Y-93787978D01*
X121582969Y-93787978D02*
X121654398Y-93716550D01*
X121654398Y-93716550D02*
X121761541Y-93680835D01*
X121761541Y-93680835D02*
X121940112Y-93680835D01*
X141312744Y-106380835D02*
X141312744Y-107130835D01*
X140812744Y-107130835D02*
X140669887Y-107130835D01*
X140669887Y-107130835D02*
X140598458Y-107095121D01*
X140598458Y-107095121D02*
X140527030Y-107023692D01*
X140527030Y-107023692D02*
X140491315Y-106880835D01*
X140491315Y-106880835D02*
X140491315Y-106630835D01*
X140491315Y-106630835D02*
X140527030Y-106487978D01*
X140527030Y-106487978D02*
X140598458Y-106416550D01*
X140598458Y-106416550D02*
X140669887Y-106380835D01*
X140669887Y-106380835D02*
X140812744Y-106380835D01*
X140812744Y-106380835D02*
X140884173Y-106416550D01*
X140884173Y-106416550D02*
X140955601Y-106487978D01*
X140955601Y-106487978D02*
X140991315Y-106630835D01*
X140991315Y-106630835D02*
X140991315Y-106880835D01*
X140991315Y-106880835D02*
X140955601Y-107023692D01*
X140955601Y-107023692D02*
X140884173Y-107095121D01*
X140884173Y-107095121D02*
X140812744Y-107130835D01*
X139777030Y-106380835D02*
X140205601Y-106380835D01*
X139991316Y-106380835D02*
X139991316Y-107130835D01*
X139991316Y-107130835D02*
X140062744Y-107023692D01*
X140062744Y-107023692D02*
X140134173Y-106952264D01*
X140134173Y-106952264D02*
X140205601Y-106916550D01*
X139527030Y-107130835D02*
X139027030Y-107130835D01*
X139027030Y-107130835D02*
X139348458Y-106380835D01*
X141312744Y-116933692D02*
X141062744Y-116933692D01*
X140955601Y-116540835D02*
X141312744Y-116540835D01*
X141312744Y-116540835D02*
X141312744Y-117290835D01*
X141312744Y-117290835D02*
X140955601Y-117290835D01*
X140634173Y-116540835D02*
X140634173Y-117290835D01*
X140634173Y-117290835D02*
X140205602Y-116540835D01*
X140205602Y-116540835D02*
X140205602Y-117290835D01*
X123047255Y-98760835D02*
X123047255Y-99510835D01*
X122547255Y-99510835D02*
X122404398Y-99510835D01*
X122404398Y-99510835D02*
X122332969Y-99475121D01*
X122332969Y-99475121D02*
X122261541Y-99403692D01*
X122261541Y-99403692D02*
X122225826Y-99260835D01*
X122225826Y-99260835D02*
X122225826Y-99010835D01*
X122225826Y-99010835D02*
X122261541Y-98867978D01*
X122261541Y-98867978D02*
X122332969Y-98796550D01*
X122332969Y-98796550D02*
X122404398Y-98760835D01*
X122404398Y-98760835D02*
X122547255Y-98760835D01*
X122547255Y-98760835D02*
X122618684Y-98796550D01*
X122618684Y-98796550D02*
X122690112Y-98867978D01*
X122690112Y-98867978D02*
X122725826Y-99010835D01*
X122725826Y-99010835D02*
X122725826Y-99260835D01*
X122725826Y-99260835D02*
X122690112Y-99403692D01*
X122690112Y-99403692D02*
X122618684Y-99475121D01*
X122618684Y-99475121D02*
X122547255Y-99510835D01*
X121582970Y-99260835D02*
X121582970Y-98760835D01*
X121761541Y-99546550D02*
X121940112Y-99010835D01*
X121940112Y-99010835D02*
X121475827Y-99010835D01*
X141384173Y-102050835D02*
X140919887Y-102050835D01*
X140919887Y-102050835D02*
X141169887Y-101765121D01*
X141169887Y-101765121D02*
X141062744Y-101765121D01*
X141062744Y-101765121D02*
X140991316Y-101729407D01*
X140991316Y-101729407D02*
X140955601Y-101693692D01*
X140955601Y-101693692D02*
X140919887Y-101622264D01*
X140919887Y-101622264D02*
X140919887Y-101443692D01*
X140919887Y-101443692D02*
X140955601Y-101372264D01*
X140955601Y-101372264D02*
X140991316Y-101336550D01*
X140991316Y-101336550D02*
X141062744Y-101300835D01*
X141062744Y-101300835D02*
X141277030Y-101300835D01*
X141277030Y-101300835D02*
X141348458Y-101336550D01*
X141348458Y-101336550D02*
X141384173Y-101372264D01*
X140705601Y-102050835D02*
X140455601Y-101300835D01*
X140455601Y-101300835D02*
X140205601Y-102050835D01*
X140027030Y-102050835D02*
X139562744Y-102050835D01*
X139562744Y-102050835D02*
X139812744Y-101765121D01*
X139812744Y-101765121D02*
X139705601Y-101765121D01*
X139705601Y-101765121D02*
X139634173Y-101729407D01*
X139634173Y-101729407D02*
X139598458Y-101693692D01*
X139598458Y-101693692D02*
X139562744Y-101622264D01*
X139562744Y-101622264D02*
X139562744Y-101443692D01*
X139562744Y-101443692D02*
X139598458Y-101372264D01*
X139598458Y-101372264D02*
X139634173Y-101336550D01*
X139634173Y-101336550D02*
X139705601Y-101300835D01*
X139705601Y-101300835D02*
X139919887Y-101300835D01*
X139919887Y-101300835D02*
X139991315Y-101336550D01*
X139991315Y-101336550D02*
X140027030Y-101372264D01*
X140919887Y-104555121D02*
X140991316Y-104590835D01*
X140991316Y-104590835D02*
X141098458Y-104590835D01*
X141098458Y-104590835D02*
X141205601Y-104555121D01*
X141205601Y-104555121D02*
X141277030Y-104483692D01*
X141277030Y-104483692D02*
X141312744Y-104412264D01*
X141312744Y-104412264D02*
X141348458Y-104269407D01*
X141348458Y-104269407D02*
X141348458Y-104162264D01*
X141348458Y-104162264D02*
X141312744Y-104019407D01*
X141312744Y-104019407D02*
X141277030Y-103947978D01*
X141277030Y-103947978D02*
X141205601Y-103876550D01*
X141205601Y-103876550D02*
X141098458Y-103840835D01*
X141098458Y-103840835D02*
X141027030Y-103840835D01*
X141027030Y-103840835D02*
X140919887Y-103876550D01*
X140919887Y-103876550D02*
X140884173Y-103912264D01*
X140884173Y-103912264D02*
X140884173Y-104162264D01*
X140884173Y-104162264D02*
X141027030Y-104162264D01*
X140562744Y-103840835D02*
X140562744Y-104590835D01*
X140562744Y-104590835D02*
X140134173Y-103840835D01*
X140134173Y-103840835D02*
X140134173Y-104590835D01*
X139777030Y-103840835D02*
X139777030Y-104590835D01*
X139777030Y-104590835D02*
X139598459Y-104590835D01*
X139598459Y-104590835D02*
X139491316Y-104555121D01*
X139491316Y-104555121D02*
X139419887Y-104483692D01*
X139419887Y-104483692D02*
X139384173Y-104412264D01*
X139384173Y-104412264D02*
X139348459Y-104269407D01*
X139348459Y-104269407D02*
X139348459Y-104162264D01*
X139348459Y-104162264D02*
X139384173Y-104019407D01*
X139384173Y-104019407D02*
X139419887Y-103947978D01*
X139419887Y-103947978D02*
X139491316Y-103876550D01*
X139491316Y-103876550D02*
X139598459Y-103840835D01*
X139598459Y-103840835D02*
X139777030Y-103840835D01*
X123761541Y-114000835D02*
X123761541Y-114750835D01*
X123261541Y-114750835D02*
X123118684Y-114750835D01*
X123118684Y-114750835D02*
X123047255Y-114715121D01*
X123047255Y-114715121D02*
X122975827Y-114643692D01*
X122975827Y-114643692D02*
X122940112Y-114500835D01*
X122940112Y-114500835D02*
X122940112Y-114250835D01*
X122940112Y-114250835D02*
X122975827Y-114107978D01*
X122975827Y-114107978D02*
X123047255Y-114036550D01*
X123047255Y-114036550D02*
X123118684Y-114000835D01*
X123118684Y-114000835D02*
X123261541Y-114000835D01*
X123261541Y-114000835D02*
X123332970Y-114036550D01*
X123332970Y-114036550D02*
X123404398Y-114107978D01*
X123404398Y-114107978D02*
X123440112Y-114250835D01*
X123440112Y-114250835D02*
X123440112Y-114500835D01*
X123440112Y-114500835D02*
X123404398Y-114643692D01*
X123404398Y-114643692D02*
X123332970Y-114715121D01*
X123332970Y-114715121D02*
X123261541Y-114750835D01*
X122690113Y-114750835D02*
X122225827Y-114750835D01*
X122225827Y-114750835D02*
X122475827Y-114465121D01*
X122475827Y-114465121D02*
X122368684Y-114465121D01*
X122368684Y-114465121D02*
X122297256Y-114429407D01*
X122297256Y-114429407D02*
X122261541Y-114393692D01*
X122261541Y-114393692D02*
X122225827Y-114322264D01*
X122225827Y-114322264D02*
X122225827Y-114143692D01*
X122225827Y-114143692D02*
X122261541Y-114072264D01*
X122261541Y-114072264D02*
X122297256Y-114036550D01*
X122297256Y-114036550D02*
X122368684Y-114000835D01*
X122368684Y-114000835D02*
X122582970Y-114000835D01*
X122582970Y-114000835D02*
X122654398Y-114036550D01*
X122654398Y-114036550D02*
X122690113Y-114072264D01*
X121868684Y-114000835D02*
X121725827Y-114000835D01*
X121725827Y-114000835D02*
X121654398Y-114036550D01*
X121654398Y-114036550D02*
X121618684Y-114072264D01*
X121618684Y-114072264D02*
X121547255Y-114179407D01*
X121547255Y-114179407D02*
X121511541Y-114322264D01*
X121511541Y-114322264D02*
X121511541Y-114607978D01*
X121511541Y-114607978D02*
X121547255Y-114679407D01*
X121547255Y-114679407D02*
X121582970Y-114715121D01*
X121582970Y-114715121D02*
X121654398Y-114750835D01*
X121654398Y-114750835D02*
X121797255Y-114750835D01*
X121797255Y-114750835D02*
X121868684Y-114715121D01*
X121868684Y-114715121D02*
X121904398Y-114679407D01*
X121904398Y-114679407D02*
X121940112Y-114607978D01*
X121940112Y-114607978D02*
X121940112Y-114429407D01*
X121940112Y-114429407D02*
X121904398Y-114357978D01*
X121904398Y-114357978D02*
X121868684Y-114322264D01*
X121868684Y-114322264D02*
X121797255Y-114286550D01*
X121797255Y-114286550D02*
X121654398Y-114286550D01*
X121654398Y-114286550D02*
X121582970Y-114322264D01*
X121582970Y-114322264D02*
X121547255Y-114357978D01*
X121547255Y-114357978D02*
X121511541Y-114429407D01*
X123761541Y-103840835D02*
X123761541Y-104590835D01*
X123261541Y-104590835D02*
X123118684Y-104590835D01*
X123118684Y-104590835D02*
X123047255Y-104555121D01*
X123047255Y-104555121D02*
X122975827Y-104483692D01*
X122975827Y-104483692D02*
X122940112Y-104340835D01*
X122940112Y-104340835D02*
X122940112Y-104090835D01*
X122940112Y-104090835D02*
X122975827Y-103947978D01*
X122975827Y-103947978D02*
X123047255Y-103876550D01*
X123047255Y-103876550D02*
X123118684Y-103840835D01*
X123118684Y-103840835D02*
X123261541Y-103840835D01*
X123261541Y-103840835D02*
X123332970Y-103876550D01*
X123332970Y-103876550D02*
X123404398Y-103947978D01*
X123404398Y-103947978D02*
X123440112Y-104090835D01*
X123440112Y-104090835D02*
X123440112Y-104340835D01*
X123440112Y-104340835D02*
X123404398Y-104483692D01*
X123404398Y-104483692D02*
X123332970Y-104555121D01*
X123332970Y-104555121D02*
X123261541Y-104590835D01*
X122225827Y-103840835D02*
X122654398Y-103840835D01*
X122440113Y-103840835D02*
X122440113Y-104590835D01*
X122440113Y-104590835D02*
X122511541Y-104483692D01*
X122511541Y-104483692D02*
X122582970Y-104412264D01*
X122582970Y-104412264D02*
X122654398Y-104376550D01*
X121940112Y-104519407D02*
X121904398Y-104555121D01*
X121904398Y-104555121D02*
X121832970Y-104590835D01*
X121832970Y-104590835D02*
X121654398Y-104590835D01*
X121654398Y-104590835D02*
X121582970Y-104555121D01*
X121582970Y-104555121D02*
X121547255Y-104519407D01*
X121547255Y-104519407D02*
X121511541Y-104447978D01*
X121511541Y-104447978D02*
X121511541Y-104376550D01*
X121511541Y-104376550D02*
X121547255Y-104269407D01*
X121547255Y-104269407D02*
X121975827Y-103840835D01*
X121975827Y-103840835D02*
X121511541Y-103840835D01*
X122975827Y-121620835D02*
X123225827Y-121977978D01*
X123404398Y-121620835D02*
X123404398Y-122370835D01*
X123404398Y-122370835D02*
X123118684Y-122370835D01*
X123118684Y-122370835D02*
X123047255Y-122335121D01*
X123047255Y-122335121D02*
X123011541Y-122299407D01*
X123011541Y-122299407D02*
X122975827Y-122227978D01*
X122975827Y-122227978D02*
X122975827Y-122120835D01*
X122975827Y-122120835D02*
X123011541Y-122049407D01*
X123011541Y-122049407D02*
X123047255Y-122013692D01*
X123047255Y-122013692D02*
X123118684Y-121977978D01*
X123118684Y-121977978D02*
X123404398Y-121977978D01*
X122725827Y-122370835D02*
X122225827Y-121620835D01*
X122225827Y-122370835D02*
X122725827Y-121620835D01*
X121940112Y-121620835D02*
X121940112Y-122370835D01*
X121940112Y-122370835D02*
X121761541Y-122370835D01*
X121761541Y-122370835D02*
X121654398Y-122335121D01*
X121654398Y-122335121D02*
X121582969Y-122263692D01*
X121582969Y-122263692D02*
X121547255Y-122192264D01*
X121547255Y-122192264D02*
X121511541Y-122049407D01*
X121511541Y-122049407D02*
X121511541Y-121942264D01*
X121511541Y-121942264D02*
X121547255Y-121799407D01*
X121547255Y-121799407D02*
X121582969Y-121727978D01*
X121582969Y-121727978D02*
X121654398Y-121656550D01*
X121654398Y-121656550D02*
X121761541Y-121620835D01*
X121761541Y-121620835D02*
X121940112Y-121620835D01*
X140919887Y-122335121D02*
X140991316Y-122370835D01*
X140991316Y-122370835D02*
X141098458Y-122370835D01*
X141098458Y-122370835D02*
X141205601Y-122335121D01*
X141205601Y-122335121D02*
X141277030Y-122263692D01*
X141277030Y-122263692D02*
X141312744Y-122192264D01*
X141312744Y-122192264D02*
X141348458Y-122049407D01*
X141348458Y-122049407D02*
X141348458Y-121942264D01*
X141348458Y-121942264D02*
X141312744Y-121799407D01*
X141312744Y-121799407D02*
X141277030Y-121727978D01*
X141277030Y-121727978D02*
X141205601Y-121656550D01*
X141205601Y-121656550D02*
X141098458Y-121620835D01*
X141098458Y-121620835D02*
X141027030Y-121620835D01*
X141027030Y-121620835D02*
X140919887Y-121656550D01*
X140919887Y-121656550D02*
X140884173Y-121692264D01*
X140884173Y-121692264D02*
X140884173Y-121942264D01*
X140884173Y-121942264D02*
X141027030Y-121942264D01*
X140562744Y-121620835D02*
X140562744Y-122370835D01*
X140562744Y-122370835D02*
X140134173Y-121620835D01*
X140134173Y-121620835D02*
X140134173Y-122370835D01*
X139777030Y-121620835D02*
X139777030Y-122370835D01*
X139777030Y-122370835D02*
X139598459Y-122370835D01*
X139598459Y-122370835D02*
X139491316Y-122335121D01*
X139491316Y-122335121D02*
X139419887Y-122263692D01*
X139419887Y-122263692D02*
X139384173Y-122192264D01*
X139384173Y-122192264D02*
X139348459Y-122049407D01*
X139348459Y-122049407D02*
X139348459Y-121942264D01*
X139348459Y-121942264D02*
X139384173Y-121799407D01*
X139384173Y-121799407D02*
X139419887Y-121727978D01*
X139419887Y-121727978D02*
X139491316Y-121656550D01*
X139491316Y-121656550D02*
X139598459Y-121620835D01*
X139598459Y-121620835D02*
X139777030Y-121620835D01*
X123047255Y-119080835D02*
X123047255Y-119830835D01*
X122547255Y-119830835D02*
X122404398Y-119830835D01*
X122404398Y-119830835D02*
X122332969Y-119795121D01*
X122332969Y-119795121D02*
X122261541Y-119723692D01*
X122261541Y-119723692D02*
X122225826Y-119580835D01*
X122225826Y-119580835D02*
X122225826Y-119330835D01*
X122225826Y-119330835D02*
X122261541Y-119187978D01*
X122261541Y-119187978D02*
X122332969Y-119116550D01*
X122332969Y-119116550D02*
X122404398Y-119080835D01*
X122404398Y-119080835D02*
X122547255Y-119080835D01*
X122547255Y-119080835D02*
X122618684Y-119116550D01*
X122618684Y-119116550D02*
X122690112Y-119187978D01*
X122690112Y-119187978D02*
X122725826Y-119330835D01*
X122725826Y-119330835D02*
X122725826Y-119580835D01*
X122725826Y-119580835D02*
X122690112Y-119723692D01*
X122690112Y-119723692D02*
X122618684Y-119795121D01*
X122618684Y-119795121D02*
X122547255Y-119830835D01*
X121761541Y-119830835D02*
X121690112Y-119830835D01*
X121690112Y-119830835D02*
X121618684Y-119795121D01*
X121618684Y-119795121D02*
X121582970Y-119759407D01*
X121582970Y-119759407D02*
X121547255Y-119687978D01*
X121547255Y-119687978D02*
X121511541Y-119545121D01*
X121511541Y-119545121D02*
X121511541Y-119366550D01*
X121511541Y-119366550D02*
X121547255Y-119223692D01*
X121547255Y-119223692D02*
X121582970Y-119152264D01*
X121582970Y-119152264D02*
X121618684Y-119116550D01*
X121618684Y-119116550D02*
X121690112Y-119080835D01*
X121690112Y-119080835D02*
X121761541Y-119080835D01*
X121761541Y-119080835D02*
X121832970Y-119116550D01*
X121832970Y-119116550D02*
X121868684Y-119152264D01*
X121868684Y-119152264D02*
X121904398Y-119223692D01*
X121904398Y-119223692D02*
X121940112Y-119366550D01*
X121940112Y-119366550D02*
X121940112Y-119545121D01*
X121940112Y-119545121D02*
X121904398Y-119687978D01*
X121904398Y-119687978D02*
X121868684Y-119759407D01*
X121868684Y-119759407D02*
X121832970Y-119795121D01*
X121832970Y-119795121D02*
X121761541Y-119830835D01*
X123332970Y-124910835D02*
X122904399Y-124910835D01*
X123118684Y-124160835D02*
X123118684Y-124910835D01*
X122725827Y-124910835D02*
X122225827Y-124160835D01*
X122225827Y-124910835D02*
X122725827Y-124160835D01*
X121940112Y-124160835D02*
X121940112Y-124910835D01*
X121940112Y-124910835D02*
X121761541Y-124910835D01*
X121761541Y-124910835D02*
X121654398Y-124875121D01*
X121654398Y-124875121D02*
X121582969Y-124803692D01*
X121582969Y-124803692D02*
X121547255Y-124732264D01*
X121547255Y-124732264D02*
X121511541Y-124589407D01*
X121511541Y-124589407D02*
X121511541Y-124482264D01*
X121511541Y-124482264D02*
X121547255Y-124339407D01*
X121547255Y-124339407D02*
X121582969Y-124267978D01*
X121582969Y-124267978D02*
X121654398Y-124196550D01*
X121654398Y-124196550D02*
X121761541Y-124160835D01*
X121761541Y-124160835D02*
X121940112Y-124160835D01*
X141384173Y-119830835D02*
X140919887Y-119830835D01*
X140919887Y-119830835D02*
X141169887Y-119545121D01*
X141169887Y-119545121D02*
X141062744Y-119545121D01*
X141062744Y-119545121D02*
X140991316Y-119509407D01*
X140991316Y-119509407D02*
X140955601Y-119473692D01*
X140955601Y-119473692D02*
X140919887Y-119402264D01*
X140919887Y-119402264D02*
X140919887Y-119223692D01*
X140919887Y-119223692D02*
X140955601Y-119152264D01*
X140955601Y-119152264D02*
X140991316Y-119116550D01*
X140991316Y-119116550D02*
X141062744Y-119080835D01*
X141062744Y-119080835D02*
X141277030Y-119080835D01*
X141277030Y-119080835D02*
X141348458Y-119116550D01*
X141348458Y-119116550D02*
X141384173Y-119152264D01*
X140705601Y-119830835D02*
X140455601Y-119080835D01*
X140455601Y-119080835D02*
X140205601Y-119830835D01*
X140027030Y-119830835D02*
X139562744Y-119830835D01*
X139562744Y-119830835D02*
X139812744Y-119545121D01*
X139812744Y-119545121D02*
X139705601Y-119545121D01*
X139705601Y-119545121D02*
X139634173Y-119509407D01*
X139634173Y-119509407D02*
X139598458Y-119473692D01*
X139598458Y-119473692D02*
X139562744Y-119402264D01*
X139562744Y-119402264D02*
X139562744Y-119223692D01*
X139562744Y-119223692D02*
X139598458Y-119152264D01*
X139598458Y-119152264D02*
X139634173Y-119116550D01*
X139634173Y-119116550D02*
X139705601Y-119080835D01*
X139705601Y-119080835D02*
X139919887Y-119080835D01*
X139919887Y-119080835D02*
X139991315Y-119116550D01*
X139991315Y-119116550D02*
X140027030Y-119152264D01*
D10*
X133572856Y-120756390D02*
X133239523Y-120756390D01*
X133096666Y-120232580D02*
X133572856Y-120232580D01*
X133572856Y-120232580D02*
X133572856Y-121232580D01*
X133572856Y-121232580D02*
X133096666Y-121232580D01*
X132715713Y-120280200D02*
X132572856Y-120232580D01*
X132572856Y-120232580D02*
X132334761Y-120232580D01*
X132334761Y-120232580D02*
X132239523Y-120280200D01*
X132239523Y-120280200D02*
X132191904Y-120327819D01*
X132191904Y-120327819D02*
X132144285Y-120423057D01*
X132144285Y-120423057D02*
X132144285Y-120518295D01*
X132144285Y-120518295D02*
X132191904Y-120613533D01*
X132191904Y-120613533D02*
X132239523Y-120661152D01*
X132239523Y-120661152D02*
X132334761Y-120708771D01*
X132334761Y-120708771D02*
X132525237Y-120756390D01*
X132525237Y-120756390D02*
X132620475Y-120804009D01*
X132620475Y-120804009D02*
X132668094Y-120851628D01*
X132668094Y-120851628D02*
X132715713Y-120946866D01*
X132715713Y-120946866D02*
X132715713Y-121042104D01*
X132715713Y-121042104D02*
X132668094Y-121137342D01*
X132668094Y-121137342D02*
X132620475Y-121184961D01*
X132620475Y-121184961D02*
X132525237Y-121232580D01*
X132525237Y-121232580D02*
X132287142Y-121232580D01*
X132287142Y-121232580D02*
X132144285Y-121184961D01*
X131715713Y-120232580D02*
X131715713Y-121232580D01*
X131715713Y-121232580D02*
X131334761Y-121232580D01*
X131334761Y-121232580D02*
X131239523Y-121184961D01*
X131239523Y-121184961D02*
X131191904Y-121137342D01*
X131191904Y-121137342D02*
X131144285Y-121042104D01*
X131144285Y-121042104D02*
X131144285Y-120899247D01*
X131144285Y-120899247D02*
X131191904Y-120804009D01*
X131191904Y-120804009D02*
X131239523Y-120756390D01*
X131239523Y-120756390D02*
X131334761Y-120708771D01*
X131334761Y-120708771D02*
X131715713Y-120708771D01*
X130810951Y-121232580D02*
X130191904Y-121232580D01*
X130191904Y-121232580D02*
X130525237Y-120851628D01*
X130525237Y-120851628D02*
X130382380Y-120851628D01*
X130382380Y-120851628D02*
X130287142Y-120804009D01*
X130287142Y-120804009D02*
X130239523Y-120756390D01*
X130239523Y-120756390D02*
X130191904Y-120661152D01*
X130191904Y-120661152D02*
X130191904Y-120423057D01*
X130191904Y-120423057D02*
X130239523Y-120327819D01*
X130239523Y-120327819D02*
X130287142Y-120280200D01*
X130287142Y-120280200D02*
X130382380Y-120232580D01*
X130382380Y-120232580D02*
X130668094Y-120232580D01*
X130668094Y-120232580D02*
X130763332Y-120280200D01*
X130763332Y-120280200D02*
X130810951Y-120327819D01*
X129810951Y-121137342D02*
X129763332Y-121184961D01*
X129763332Y-121184961D02*
X129668094Y-121232580D01*
X129668094Y-121232580D02*
X129429999Y-121232580D01*
X129429999Y-121232580D02*
X129334761Y-121184961D01*
X129334761Y-121184961D02*
X129287142Y-121137342D01*
X129287142Y-121137342D02*
X129239523Y-121042104D01*
X129239523Y-121042104D02*
X129239523Y-120946866D01*
X129239523Y-120946866D02*
X129287142Y-120804009D01*
X129287142Y-120804009D02*
X129858570Y-120232580D01*
X129858570Y-120232580D02*
X129239523Y-120232580D01*
D13*
X140955601Y-93680835D02*
X141312744Y-93680835D01*
X141312744Y-93680835D02*
X141312744Y-94430835D01*
X140705601Y-93680835D02*
X140705601Y-94430835D01*
X140348458Y-93680835D02*
X140348458Y-94430835D01*
X140348458Y-94430835D02*
X139919887Y-93680835D01*
X139919887Y-93680835D02*
X139919887Y-94430835D01*
X139562744Y-93680835D02*
X139562744Y-94430835D01*
X139134173Y-93680835D02*
X139455601Y-94109407D01*
X139134173Y-94430835D02*
X139562744Y-94002264D01*
X123761541Y-106380835D02*
X123761541Y-107130835D01*
X123261541Y-107130835D02*
X123118684Y-107130835D01*
X123118684Y-107130835D02*
X123047255Y-107095121D01*
X123047255Y-107095121D02*
X122975827Y-107023692D01*
X122975827Y-107023692D02*
X122940112Y-106880835D01*
X122940112Y-106880835D02*
X122940112Y-106630835D01*
X122940112Y-106630835D02*
X122975827Y-106487978D01*
X122975827Y-106487978D02*
X123047255Y-106416550D01*
X123047255Y-106416550D02*
X123118684Y-106380835D01*
X123118684Y-106380835D02*
X123261541Y-106380835D01*
X123261541Y-106380835D02*
X123332970Y-106416550D01*
X123332970Y-106416550D02*
X123404398Y-106487978D01*
X123404398Y-106487978D02*
X123440112Y-106630835D01*
X123440112Y-106630835D02*
X123440112Y-106880835D01*
X123440112Y-106880835D02*
X123404398Y-107023692D01*
X123404398Y-107023692D02*
X123332970Y-107095121D01*
X123332970Y-107095121D02*
X123261541Y-107130835D01*
X122225827Y-106380835D02*
X122654398Y-106380835D01*
X122440113Y-106380835D02*
X122440113Y-107130835D01*
X122440113Y-107130835D02*
X122511541Y-107023692D01*
X122511541Y-107023692D02*
X122582970Y-106952264D01*
X122582970Y-106952264D02*
X122654398Y-106916550D01*
X121582970Y-106880835D02*
X121582970Y-106380835D01*
X121761541Y-107166550D02*
X121940112Y-106630835D01*
X121940112Y-106630835D02*
X121475827Y-106630835D01*
X141312744Y-124553692D02*
X141062744Y-124553692D01*
X140955601Y-124160835D02*
X141312744Y-124160835D01*
X141312744Y-124160835D02*
X141312744Y-124910835D01*
X141312744Y-124910835D02*
X140955601Y-124910835D01*
X140634173Y-124160835D02*
X140634173Y-124910835D01*
X140634173Y-124910835D02*
X140205602Y-124160835D01*
X140205602Y-124160835D02*
X140205602Y-124910835D01*
X141312744Y-111460835D02*
X141312744Y-112210835D01*
X140812744Y-112210835D02*
X140669887Y-112210835D01*
X140669887Y-112210835D02*
X140598458Y-112175121D01*
X140598458Y-112175121D02*
X140527030Y-112103692D01*
X140527030Y-112103692D02*
X140491315Y-111960835D01*
X140491315Y-111960835D02*
X140491315Y-111710835D01*
X140491315Y-111710835D02*
X140527030Y-111567978D01*
X140527030Y-111567978D02*
X140598458Y-111496550D01*
X140598458Y-111496550D02*
X140669887Y-111460835D01*
X140669887Y-111460835D02*
X140812744Y-111460835D01*
X140812744Y-111460835D02*
X140884173Y-111496550D01*
X140884173Y-111496550D02*
X140955601Y-111567978D01*
X140955601Y-111567978D02*
X140991315Y-111710835D01*
X140991315Y-111710835D02*
X140991315Y-111960835D01*
X140991315Y-111960835D02*
X140955601Y-112103692D01*
X140955601Y-112103692D02*
X140884173Y-112175121D01*
X140884173Y-112175121D02*
X140812744Y-112210835D01*
X140241316Y-112210835D02*
X139777030Y-112210835D01*
X139777030Y-112210835D02*
X140027030Y-111925121D01*
X140027030Y-111925121D02*
X139919887Y-111925121D01*
X139919887Y-111925121D02*
X139848459Y-111889407D01*
X139848459Y-111889407D02*
X139812744Y-111853692D01*
X139812744Y-111853692D02*
X139777030Y-111782264D01*
X139777030Y-111782264D02*
X139777030Y-111603692D01*
X139777030Y-111603692D02*
X139812744Y-111532264D01*
X139812744Y-111532264D02*
X139848459Y-111496550D01*
X139848459Y-111496550D02*
X139919887Y-111460835D01*
X139919887Y-111460835D02*
X140134173Y-111460835D01*
X140134173Y-111460835D02*
X140205601Y-111496550D01*
X140205601Y-111496550D02*
X140241316Y-111532264D01*
X139527030Y-112210835D02*
X139062744Y-112210835D01*
X139062744Y-112210835D02*
X139312744Y-111925121D01*
X139312744Y-111925121D02*
X139205601Y-111925121D01*
X139205601Y-111925121D02*
X139134173Y-111889407D01*
X139134173Y-111889407D02*
X139098458Y-111853692D01*
X139098458Y-111853692D02*
X139062744Y-111782264D01*
X139062744Y-111782264D02*
X139062744Y-111603692D01*
X139062744Y-111603692D02*
X139098458Y-111532264D01*
X139098458Y-111532264D02*
X139134173Y-111496550D01*
X139134173Y-111496550D02*
X139205601Y-111460835D01*
X139205601Y-111460835D02*
X139419887Y-111460835D01*
X139419887Y-111460835D02*
X139491315Y-111496550D01*
X139491315Y-111496550D02*
X139527030Y-111532264D01*
X141312744Y-108920835D02*
X141312744Y-109670835D01*
X140812744Y-109670835D02*
X140669887Y-109670835D01*
X140669887Y-109670835D02*
X140598458Y-109635121D01*
X140598458Y-109635121D02*
X140527030Y-109563692D01*
X140527030Y-109563692D02*
X140491315Y-109420835D01*
X140491315Y-109420835D02*
X140491315Y-109170835D01*
X140491315Y-109170835D02*
X140527030Y-109027978D01*
X140527030Y-109027978D02*
X140598458Y-108956550D01*
X140598458Y-108956550D02*
X140669887Y-108920835D01*
X140669887Y-108920835D02*
X140812744Y-108920835D01*
X140812744Y-108920835D02*
X140884173Y-108956550D01*
X140884173Y-108956550D02*
X140955601Y-109027978D01*
X140955601Y-109027978D02*
X140991315Y-109170835D01*
X140991315Y-109170835D02*
X140991315Y-109420835D01*
X140991315Y-109420835D02*
X140955601Y-109563692D01*
X140955601Y-109563692D02*
X140884173Y-109635121D01*
X140884173Y-109635121D02*
X140812744Y-109670835D01*
X139812744Y-109670835D02*
X140169887Y-109670835D01*
X140169887Y-109670835D02*
X140205601Y-109313692D01*
X140205601Y-109313692D02*
X140169887Y-109349407D01*
X140169887Y-109349407D02*
X140098459Y-109385121D01*
X140098459Y-109385121D02*
X139919887Y-109385121D01*
X139919887Y-109385121D02*
X139848459Y-109349407D01*
X139848459Y-109349407D02*
X139812744Y-109313692D01*
X139812744Y-109313692D02*
X139777030Y-109242264D01*
X139777030Y-109242264D02*
X139777030Y-109063692D01*
X139777030Y-109063692D02*
X139812744Y-108992264D01*
X139812744Y-108992264D02*
X139848459Y-108956550D01*
X139848459Y-108956550D02*
X139919887Y-108920835D01*
X139919887Y-108920835D02*
X140098459Y-108920835D01*
X140098459Y-108920835D02*
X140169887Y-108956550D01*
X140169887Y-108956550D02*
X140205601Y-108992264D01*
D11*
X174471905Y-71054318D02*
X174471905Y-71961461D01*
X174471905Y-71961461D02*
X174411428Y-72142889D01*
X174411428Y-72142889D02*
X174290476Y-72263842D01*
X174290476Y-72263842D02*
X174109047Y-72324318D01*
X174109047Y-72324318D02*
X173988095Y-72324318D01*
X175741905Y-72324318D02*
X175016190Y-72324318D01*
X175379047Y-72324318D02*
X175379047Y-71054318D01*
X175379047Y-71054318D02*
X175258095Y-71235746D01*
X175258095Y-71235746D02*
X175137143Y-71356699D01*
X175137143Y-71356699D02*
X175016190Y-71417175D01*
X176165238Y-71054318D02*
X176951429Y-71054318D01*
X176951429Y-71054318D02*
X176528095Y-71538127D01*
X176528095Y-71538127D02*
X176709524Y-71538127D01*
X176709524Y-71538127D02*
X176830476Y-71598603D01*
X176830476Y-71598603D02*
X176890952Y-71659080D01*
X176890952Y-71659080D02*
X176951429Y-71780032D01*
X176951429Y-71780032D02*
X176951429Y-72082413D01*
X176951429Y-72082413D02*
X176890952Y-72203365D01*
X176890952Y-72203365D02*
X176830476Y-72263842D01*
X176830476Y-72263842D02*
X176709524Y-72324318D01*
X176709524Y-72324318D02*
X176346667Y-72324318D01*
X176346667Y-72324318D02*
X176225714Y-72263842D01*
X176225714Y-72263842D02*
X176165238Y-72203365D01*
D10*
%TO.C,J8*%
X168000000Y-75500000D02*
X153000000Y-75500000D01*
X168000000Y-68000000D02*
X168000000Y-75500000D01*
X153000000Y-75500000D02*
X153000000Y-68000000D01*
X153000000Y-68000000D02*
X168000000Y-68000000D01*
%TO.C,J7*%
X147360000Y-143828000D02*
X162360000Y-143828000D01*
X147360000Y-151328000D02*
X147360000Y-143828000D01*
X162360000Y-143828000D02*
X162360000Y-151328000D01*
X162360000Y-151328000D02*
X147360000Y-151328000D01*
%TO.C,J6*%
X85488000Y-144074000D02*
X100488000Y-144074000D01*
X85488000Y-151574000D02*
X85488000Y-144074000D01*
X100488000Y-144074000D02*
X100488000Y-151574000D01*
X100488000Y-151574000D02*
X85488000Y-151574000D01*
%TO.C,J5*%
X100488000Y-144074000D02*
X115488000Y-144074000D01*
X100488000Y-151574000D02*
X100488000Y-144074000D01*
X115488000Y-144074000D02*
X115488000Y-151574000D01*
X115488000Y-151574000D02*
X100488000Y-151574000D01*
%TO.C,J4*%
X130488000Y-144074000D02*
X145488000Y-144074000D01*
X130488000Y-151574000D02*
X130488000Y-144074000D01*
X145488000Y-144074000D02*
X145488000Y-151574000D01*
X145488000Y-151574000D02*
X130488000Y-151574000D01*
%TO.C,J3*%
X115488000Y-144074000D02*
X130488000Y-144074000D01*
X115488000Y-151574000D02*
X115488000Y-144074000D01*
X130488000Y-144074000D02*
X130488000Y-151574000D01*
X130488000Y-151574000D02*
X115488000Y-151574000D01*
D14*
%TO.C,U2*%
X165726400Y-109135200D02*
X164346400Y-109135200D01*
X165726400Y-107755200D02*
X165726400Y-109135200D01*
X165726400Y-106485200D02*
X165726400Y-83515200D01*
X165726400Y-106485200D02*
X162966400Y-106485200D01*
X165726400Y-83515200D02*
X162966400Y-83515200D01*
X162966400Y-106485200D02*
X162966400Y-83515200D01*
X150486400Y-109084400D02*
X149106400Y-109084400D01*
X150486400Y-107704400D02*
X150486400Y-109084400D01*
X150486400Y-106434400D02*
X150486400Y-83464400D01*
X150486400Y-106434400D02*
X147726400Y-106434400D01*
X150486400Y-83464400D02*
X147726400Y-83464400D01*
X147946400Y-109084400D02*
X146566400Y-109084400D01*
X147946400Y-106434400D02*
X145186400Y-106434400D01*
X147946400Y-83464400D02*
X145186400Y-83464400D01*
X145186400Y-106434400D02*
X145186400Y-83464400D01*
D10*
X162052000Y-100177600D02*
X153924000Y-100177600D01*
X153924000Y-94589600D01*
X162052000Y-94589600D01*
X162052000Y-100177600D01*
X161290000Y-105410000D02*
X160528000Y-105410000D01*
X160528000Y-103886000D01*
X161290000Y-103886000D01*
X161290000Y-105410000D01*
X161290000Y-90170000D02*
X158242000Y-90170000D01*
X158242000Y-89154000D01*
X161290000Y-89154000D01*
X161290000Y-90170000D01*
X159766000Y-105410000D02*
X159004000Y-105410000D01*
X159004000Y-103886000D01*
X159766000Y-103886000D01*
X159766000Y-105410000D01*
X158496000Y-105410000D02*
X157734000Y-105410000D01*
X157734000Y-103886000D01*
X158496000Y-103886000D01*
X158496000Y-105410000D01*
%TO.C,U7*%
X117939500Y-130302000D02*
X79077500Y-130302000D01*
X115653500Y-140462000D02*
X113113500Y-140462000D01*
X113113500Y-120142000D01*
X115653500Y-120142000D01*
X115653500Y-140462000D01*
X83395500Y-137922000D02*
X80855500Y-137922000D01*
X80855500Y-122682000D01*
X83395500Y-122682000D01*
X83395500Y-137922000D01*
%TO.C,U5*%
X117939500Y-108966000D02*
X79077500Y-108966000D01*
X115653500Y-119126000D02*
X113113500Y-119126000D01*
X113113500Y-98806000D01*
X115653500Y-98806000D01*
X115653500Y-119126000D01*
X83395500Y-116586000D02*
X80855500Y-116586000D01*
X80855500Y-101346000D01*
X83395500Y-101346000D01*
X83395500Y-116586000D01*
%TO.C,U4*%
X78910500Y-87630000D02*
X117772500Y-87630000D01*
X81196500Y-77470000D02*
X83736500Y-77470000D01*
X83736500Y-97790000D01*
X81196500Y-97790000D01*
X81196500Y-77470000D01*
X113454500Y-80010000D02*
X115994500Y-80010000D01*
X115994500Y-95250000D01*
X113454500Y-95250000D01*
X113454500Y-80010000D01*
%TO.C,U3*%
X145034000Y-132080000D02*
X183896000Y-132080000D01*
X147320000Y-121920000D02*
X149860000Y-121920000D01*
X149860000Y-142240000D01*
X147320000Y-142240000D01*
X147320000Y-121920000D01*
X179578000Y-124460000D02*
X182118000Y-124460000D01*
X182118000Y-139700000D01*
X179578000Y-139700000D01*
X179578000Y-124460000D01*
%TO.C,J2*%
X100000000Y-67750000D02*
X110000000Y-67750000D01*
X100000000Y-75250000D02*
X100000000Y-67750000D01*
X110000000Y-67750000D02*
X110000000Y-75250000D01*
X110000000Y-75250000D02*
X100000000Y-75250000D01*
D14*
%TO.C,DRA2*%
X95500000Y-118500000D02*
G75*
G02*
X91500000Y-118500000I-2000000J0D01*
G01*
X91500000Y-118500000D02*
G75*
G02*
X95500000Y-118500000I2000000J0D01*
G01*
X95500000Y-106000000D02*
G75*
G02*
X91500000Y-106000000I-2000000J0D01*
G01*
X91500000Y-106000000D02*
G75*
G02*
X95500000Y-106000000I2000000J0D01*
G01*
X95500000Y-93500000D02*
G75*
G02*
X91500000Y-93500000I-2000000J0D01*
G01*
X91500000Y-93500000D02*
G75*
G02*
X95500000Y-93500000I2000000J0D01*
G01*
%TO.C,DRA1*%
X157500000Y-118500000D02*
G75*
G02*
X153500000Y-118500000I-2000000J0D01*
G01*
X153500000Y-118500000D02*
G75*
G02*
X157500000Y-118500000I2000000J0D01*
G01*
X157500000Y-106000000D02*
G75*
G02*
X153500000Y-106000000I-2000000J0D01*
G01*
X153500000Y-106000000D02*
G75*
G02*
X157500000Y-106000000I2000000J0D01*
G01*
X157500000Y-93500000D02*
G75*
G02*
X153500000Y-93500000I-2000000J0D01*
G01*
X153500000Y-93500000D02*
G75*
G02*
X157500000Y-93500000I2000000J0D01*
G01*
D10*
%TO.C,J1*%
X185046000Y-151328000D02*
X175046000Y-151328000D01*
X185046000Y-143828000D02*
X185046000Y-151328000D01*
X175046000Y-151328000D02*
X175046000Y-143828000D01*
X175046000Y-143828000D02*
X185046000Y-143828000D01*
%TO.C,J11*%
X172934000Y-151328000D02*
X162934000Y-151328000D01*
X172934000Y-143828000D02*
X172934000Y-151328000D01*
X162934000Y-151328000D02*
X162934000Y-143828000D01*
X162934000Y-143828000D02*
X172934000Y-143828000D01*
%TO.C,J12*%
X153000000Y-75500000D02*
X143000000Y-75500000D01*
X153000000Y-68000000D02*
X153000000Y-75500000D01*
X143000000Y-75500000D02*
X143000000Y-68000000D01*
X143000000Y-68000000D02*
X153000000Y-68000000D01*
%TO.C,J10*%
X100000000Y-75250000D02*
X90000000Y-75250000D01*
X100000000Y-67750000D02*
X100000000Y-75250000D01*
X90000000Y-75250000D02*
X90000000Y-67750000D01*
X90000000Y-67750000D02*
X100000000Y-67750000D01*
%TO.C,J9*%
X90000000Y-75250000D02*
X80000000Y-75250000D01*
X90000000Y-67750000D02*
X90000000Y-75250000D01*
X80000000Y-75250000D02*
X80000000Y-67750000D01*
X80000000Y-67750000D02*
X90000000Y-67750000D01*
D14*
%TO.C,U1*%
X144223000Y-125880000D02*
X142843000Y-125880000D01*
X144223000Y-124500000D02*
X144223000Y-125880000D01*
X144223000Y-123230000D02*
X144223000Y-92640000D01*
X144223000Y-123230000D02*
X141463000Y-123230000D01*
X144223000Y-92640000D02*
X141463000Y-92640000D01*
X141463000Y-123230000D02*
X141463000Y-92640000D01*
X121363000Y-125935000D02*
X119983000Y-125935000D01*
X121363000Y-124555000D02*
X121363000Y-125935000D01*
X121363000Y-123285000D02*
X121363000Y-92695000D01*
X121363000Y-123285000D02*
X118603000Y-123285000D01*
X121363000Y-92695000D02*
X118603000Y-92695000D01*
X118603000Y-123285000D02*
X118603000Y-92695000D01*
D10*
X144430000Y-132950000D02*
X118430000Y-132950000D01*
X118430000Y-77950000D01*
X144430000Y-77950000D01*
X144430000Y-132950000D01*
X140320000Y-92750000D02*
X122540000Y-92750000D01*
X122540000Y-69890000D01*
X140320000Y-69890000D01*
X140320000Y-92750000D01*
X139050000Y-127040000D02*
X123810000Y-127040000D01*
X123810000Y-110530000D01*
X139050000Y-110530000D01*
X139050000Y-127040000D01*
%TO.C,J13*%
X183000000Y-75500000D02*
X168000000Y-75500000D01*
X183000000Y-68000000D02*
X183000000Y-75500000D01*
X168000000Y-75500000D02*
X168000000Y-68000000D01*
X168000000Y-68000000D02*
X183000000Y-68000000D01*
%TD*%
M02*
